<svg width="185" height="56" viewBox="0 0 185 56" fill="none" xmlns="http://www.w3.org/2000/svg">
<g clip-path="url(#clip0_1_275)">
<path d="M170.267 0.380184H14.7405C14.1736 0.380184 13.6135 0.380184 13.0481 0.382934C12.5748 0.385684 12.1053 0.393672 11.6274 0.400396C10.5893 0.411261 9.55363 0.492489 8.5294 0.643372C7.50662 0.797542 6.51586 1.08819 5.59066 1.5055C4.66658 1.92633 3.82224 2.47317 3.08824 3.12616C2.35038 3.7773 1.73533 4.52995 1.26671 5.35516C0.796806 6.17871 0.470973 7.06123 0.300465 7.97222C0.128334 8.88206 0.0357099 9.8024 0.0234218 10.725C0.00907499 11.1465 0.00755991 11.5695 0 11.9912V43.7732C0.00755991 44.2002 0.00907499 44.6138 0.0234218 45.0409C0.0357138 45.9633 0.128338 46.8836 0.300465 47.7935C0.470502 48.705 0.796355 49.588 1.26671 50.4119C1.73511 51.2344 2.35025 51.9841 3.08824 52.6315C3.81946 53.2874 4.66434 53.8347 5.59066 54.2523C6.51585 54.6707 7.50651 54.9631 8.5294 55.1196C9.55381 55.2693 10.5894 55.3506 11.6274 55.3627C12.1053 55.3721 12.5748 55.3774 13.0481 55.3774C13.6135 55.3802 14.1737 55.3802 14.7405 55.3802H170.267C170.824 55.3802 171.388 55.3802 171.943 55.3774C172.415 55.3774 172.898 55.3721 173.368 55.3627C174.404 55.3512 175.439 55.2699 176.461 55.1196C177.488 54.962 178.481 54.6697 179.41 54.2523C180.337 53.8344 181.181 53.2873 181.911 52.6315C182.647 51.9814 183.264 51.2325 183.738 50.4119C184.205 49.5874 184.527 48.7045 184.694 47.7935C184.867 46.8835 184.963 45.9635 184.982 45.0409C184.988 44.6138 184.988 44.2002 184.988 43.7732C185 43.2737 185 42.7769 185 42.2693V13.4924C185 12.9888 185 12.4893 184.988 11.9912C184.988 11.5695 184.988 11.1465 184.982 10.7249C184.963 9.80226 184.867 8.88213 184.694 7.97217C184.527 7.0617 184.204 6.17925 183.738 5.3551C182.784 3.70107 181.27 2.35471 179.41 1.50537C178.481 1.08909 177.488 0.798514 176.461 0.643249C175.439 0.4917 174.406 0.410444 173.368 0.400204C172.898 0.393494 172.415 0.385436 171.943 0.382755C171.388 0.380005 170.824 0.380184 170.267 0.380184Z" fill="#A6A6A6"/>
<path d="M13.0556 54.1769C12.5846 54.1769 12.1249 54.1715 11.6576 54.1622C10.6895 54.1509 9.7236 54.076 8.76792 53.9379C7.87678 53.8014 7.01353 53.5475 6.2066 53.1845C5.40708 52.8246 4.67784 52.3527 4.04684 51.7867C3.40671 51.2275 2.87378 50.5788 2.46915 49.8665C2.06005 49.1496 1.77694 48.3811 1.62967 47.5879C1.47063 46.7355 1.38457 45.8737 1.37226 45.0098C1.36246 44.7198 1.34963 43.7542 1.34963 43.7542V11.991C1.34963 11.991 1.36329 11.0403 1.37234 10.761C1.38413 9.89841 1.46968 9.0379 1.62825 8.18688C1.77579 7.39147 2.05913 6.62079 2.46843 5.9015C2.87157 5.18967 3.40156 4.54056 4.03784 3.97932C4.6734 3.41273 5.40496 2.93833 6.20585 2.57342C7.01091 2.21163 7.87254 1.95951 8.76187 1.8255C9.72069 1.68603 10.6899 1.61062 11.6614 1.59992L13.0564 1.58313H171.936L173.348 1.60059C174.31 1.61077 175.27 1.6855 176.22 1.82415C177.119 1.95985 177.989 2.21373 178.805 2.57745C180.408 3.31287 181.714 4.47635 182.537 5.90485C182.94 6.61918 183.22 7.38358 183.365 8.17212C183.525 9.03012 183.615 9.8974 183.634 10.767C183.638 11.1564 183.638 11.5747 183.638 11.991C183.65 12.5066 183.65 12.9974 183.65 13.4922V42.2691C183.65 42.7686 183.65 43.2561 183.638 43.7475C183.638 44.1947 183.638 44.6043 183.632 45.0258C183.615 45.88 183.525 46.7318 183.368 47.5744C183.224 48.3734 182.942 49.1478 182.533 49.8707C182.125 50.5752 181.596 51.2183 180.963 51.776C180.331 52.345 179.601 52.8196 178.799 53.1819C177.988 53.5477 177.118 53.8025 176.22 53.9379C175.265 54.0768 174.299 54.1517 173.331 54.1622C172.878 54.1715 172.404 54.1769 171.943 54.1769L170.267 54.1796L13.0556 54.1769Z" fill="black"/>
<path d="M35.3129 28.2935C35.3276 27.1457 35.6314 26.0206 36.1961 25.0223C36.7607 24.0241 37.5677 23.1855 38.5422 22.5843C37.9232 21.6973 37.1065 20.9672 36.1571 20.4522C35.2077 19.9372 34.1517 19.6515 33.0729 19.6176C30.7717 19.3752 28.5408 20.9992 27.3682 20.9992C26.1728 20.9992 24.3674 19.6417 22.4232 19.6817C21.1656 19.7225 19.9401 20.0894 18.8659 20.7468C17.7917 21.4042 16.9054 22.3294 16.2937 23.4326C13.6433 28.0366 15.6202 34.8031 18.1589 38.5247C19.4291 40.347 20.9136 42.3827 22.8561 42.3105C24.7568 42.2314 25.4668 41.0943 27.7612 41.0943C30.0343 41.0943 30.7004 42.3105 32.6822 42.2646C34.7219 42.2314 36.0069 40.4342 37.2326 38.5945C38.1452 37.296 38.8474 35.8609 39.3133 34.3424C38.1284 33.8394 37.1172 32.9977 36.4058 31.9221C35.6943 30.8464 35.3143 29.5844 35.3129 28.2935Z" fill="white"/>
<path d="M31.5696 17.17C32.6817 15.8304 33.2296 14.1087 33.0969 12.3704C31.3979 12.5494 29.8284 13.3642 28.7013 14.6523C28.1503 15.2817 27.7282 16.0137 27.4592 16.8068C27.1903 17.5998 27.0798 18.4383 27.134 19.2743C27.9838 19.2831 28.8245 19.0981 29.5929 18.7338C30.3612 18.3692 31.0371 17.8345 31.5696 17.17Z" fill="white"/>
<path d="M67.5623 37.6969H61.0758L59.5181 42.3121H56.7706L62.9145 25.2374H65.769L71.9129 42.3121H69.1187L67.5623 37.6969ZM61.7477 35.5673H66.8893L64.3546 28.0773H64.2837L61.7477 35.5673Z" fill="white"/>
<path d="M85.1818 36.0883C85.1818 39.9569 83.1182 42.4423 80.0041 42.4423C79.2152 42.4837 78.4307 42.3014 77.7403 41.9163C77.0499 41.531 76.4816 40.9586 76.1004 40.2643H76.0414V46.4304H73.4947V29.8633H75.9599V31.9338H76.0068C76.4054 31.243 76.9834 30.6734 77.679 30.2858C78.3746 29.8984 79.162 29.7072 79.9573 29.7329C83.1061 29.7331 85.1818 32.2306 85.1818 36.0883ZM82.5641 36.0883C82.5641 33.568 81.2661 31.9109 79.2855 31.9109C77.3396 31.9109 76.0309 33.6029 76.0309 36.0883C76.0309 38.5966 77.3396 40.2764 79.2855 40.2764C81.2661 40.2764 82.5641 38.6315 82.5641 36.0883Z" fill="white"/>
<path d="M98.8373 36.0883C98.8373 39.9569 96.7736 42.4423 93.6596 42.4423C92.8707 42.4837 92.0861 42.3014 91.3958 41.9163C90.7054 41.531 90.1371 40.9586 89.7558 40.2643H89.6969V46.4304H87.1502V29.8633H89.6154V31.9338H89.6621C90.0609 31.243 90.6388 30.6734 91.3344 30.2858C92.0301 29.8984 92.8174 29.7072 93.6127 29.7329C96.7616 29.7329 98.8373 32.2305 98.8373 36.0883ZM96.2196 36.0883C96.2196 33.568 94.9214 31.9109 92.9408 31.9109C90.9951 31.9109 89.6862 33.6029 89.6862 36.0883C89.6862 38.5966 90.9951 40.2764 92.9408 40.2764C94.9216 40.2764 96.2196 38.6315 96.2196 36.0883Z" fill="white"/>
<path d="M107.863 37.5546C108.051 39.248 109.691 40.3596 111.931 40.3596C114.077 40.3596 115.622 39.2478 115.622 37.7212C115.622 36.3958 114.69 35.6023 112.485 35.0585L110.279 34.5254C107.155 33.768 105.704 32.3017 105.704 29.9223C105.704 26.9762 108.263 24.9526 111.896 24.9526C115.492 24.9526 117.957 26.9762 118.04 29.9223H115.469C115.315 28.2183 113.911 27.1898 111.86 27.1898C109.808 27.1898 108.405 28.2304 108.405 29.7451C108.405 30.9522 109.301 31.6625 111.494 32.2063L113.369 32.6682C116.861 33.4967 118.312 34.9039 118.312 37.4015C118.312 40.596 115.776 42.5966 111.742 42.5966C107.968 42.5966 105.42 40.6429 105.256 37.5545L107.863 37.5546Z" fill="white"/>
<path d="M123.808 26.9172V29.8633H126.167V31.8869H123.808V38.7498C123.808 39.816 124.28 40.3128 125.317 40.3128C125.597 40.3078 125.877 40.2881 126.155 40.2536V42.2651C125.689 42.3526 125.215 42.3922 124.74 42.3832C122.229 42.3832 121.249 41.4365 121.249 39.0223V31.8869H119.445V29.8633H121.249V26.9172H123.808Z" fill="white"/>
<path d="M127.534 36.0883C127.534 32.1715 129.833 29.7103 133.418 29.7103C137.015 29.7103 139.304 32.1715 139.304 36.0883C139.304 40.016 137.027 42.4666 133.418 42.4666C129.81 42.4666 127.534 40.016 127.534 36.0883ZM136.709 36.0883C136.709 33.4015 135.481 31.8157 133.418 31.8157C131.354 31.8157 130.128 33.4136 130.128 36.0883C130.128 38.786 131.354 40.3598 133.418 40.3598C135.481 40.3598 136.709 38.786 136.709 36.0883Z" fill="white"/>
<path d="M141.403 29.8633H143.833V31.9822H143.892C144.055 31.3204 144.441 30.7356 144.985 30.326C145.529 29.9164 146.197 29.7069 146.875 29.7329C147.168 29.732 147.461 29.764 147.748 29.8284V32.2185C147.378 32.1048 146.991 32.0527 146.604 32.0641C146.234 32.049 145.865 32.1144 145.522 32.2559C145.18 32.3974 144.873 32.6115 144.621 32.8836C144.369 33.1557 144.178 33.4794 144.062 33.8322C143.946 34.1852 143.908 34.559 143.949 34.9282V42.3121H141.403V29.8633Z" fill="white"/>
<path d="M159.489 38.6557C159.147 40.9157 156.954 42.4666 154.147 42.4666C150.538 42.4666 148.297 40.0401 148.297 36.1475C148.297 32.2427 150.55 29.7103 154.041 29.7103C157.473 29.7103 159.632 32.0762 159.632 35.8507V36.7262H150.868V36.8806C150.828 37.3388 150.885 37.8004 151.037 38.2346C151.187 38.6688 151.429 39.0659 151.744 39.3995C152.06 39.7329 152.443 39.9953 152.868 40.1689C153.291 40.3426 153.749 40.4236 154.206 40.4067C154.808 40.4633 155.412 40.3235 155.928 40.0079C156.444 39.6925 156.846 39.2183 157.072 38.6557H159.489ZM150.881 34.9404H157.083C157.106 34.5284 157.044 34.1162 156.901 33.7294C156.757 33.3427 156.536 32.9901 156.25 32.6933C155.965 32.3967 155.621 32.1624 155.24 32.0054C154.86 31.8484 154.452 31.7719 154.041 31.7807C153.625 31.7783 153.214 31.8583 152.831 32.016C152.447 32.1737 152.097 32.4062 151.804 32.6999C151.511 32.9938 151.278 33.3429 151.119 33.7275C150.96 34.1119 150.879 34.5241 150.881 34.9404Z" fill="white"/>
<path d="M64.6202 13.1593C65.1541 13.1208 65.6898 13.2018 66.1889 13.3962C66.6878 13.5907 67.1376 13.8939 67.5055 14.2839C67.8736 14.6738 68.1509 15.1409 68.3172 15.6515C68.4836 16.1619 68.535 16.7031 68.4677 17.2359C68.4677 19.857 67.0558 21.3636 64.6202 21.3636H61.6667V13.1593H64.6202ZM62.9367 20.2034H64.4784C64.8599 20.2262 65.2417 20.1635 65.5959 20.0197C65.9502 19.8759 66.2681 19.6545 66.5264 19.3719C66.7847 19.0892 66.977 18.7524 67.0891 18.3858C67.2013 18.0191 67.2307 17.632 67.1749 17.2526C67.2265 16.8748 67.1943 16.4901 67.0805 16.1261C66.9664 15.7623 66.7738 15.4282 66.516 15.1477C66.2584 14.8673 65.942 14.6476 65.5898 14.5043C65.2374 14.3609 64.8579 14.2975 64.4784 14.3187H62.9367V20.2034Z" fill="white"/>
<path d="M69.9022 18.265C69.8634 17.8582 69.9099 17.4477 70.0384 17.0598C70.1671 16.672 70.375 16.3154 70.649 16.0129C70.923 15.7104 71.2569 15.4687 71.6295 15.3034C72.002 15.138 72.4049 15.0526 72.8123 15.0526C73.2196 15.0526 73.6225 15.138 73.9951 15.3034C74.3675 15.4687 74.7015 15.7104 74.9756 16.0129C75.2495 16.3154 75.4575 16.672 75.5861 17.0598C75.7147 17.4477 75.7611 17.8582 75.7223 18.265C75.7619 18.6724 75.716 19.0834 75.5877 19.472C75.4594 19.8604 75.2517 20.2177 74.9776 20.5207C74.7036 20.8238 74.3693 21.066 73.9964 21.2317C73.6234 21.3974 73.2201 21.4831 72.8123 21.4831C72.4045 21.4831 72.001 21.3974 71.6282 21.2317C71.2553 21.066 70.9211 20.8238 70.647 20.5207C70.3729 20.2177 70.165 19.8604 70.0368 19.472C69.9085 19.0834 69.8627 18.6724 69.9022 18.265ZM74.4696 18.265C74.4696 16.923 73.8689 16.1382 72.8142 16.1382C71.7557 16.1382 71.1602 16.923 71.1602 18.265C71.1602 19.6179 71.7557 20.3967 72.8142 20.3967C73.8689 20.3967 74.4696 19.6125 74.4696 18.265Z" fill="white"/>
<path d="M83.4587 21.3635H82.1955L80.9201 16.8034H80.8238L79.5537 21.3635H78.3024L76.6015 15.172H77.8368L78.9421 19.8965H79.0332L80.3018 15.172H81.4702L82.7388 19.8965H82.8352L83.9352 15.172H85.153L83.4587 21.3635Z" fill="white"/>
<path d="M86.5836 15.172H87.7559V16.1556H87.8469C88.0013 15.8023 88.2617 15.5062 88.5917 15.3085C88.9218 15.1108 89.3051 15.0213 89.6883 15.0525C89.9885 15.0298 90.29 15.0753 90.5704 15.1854C90.8508 15.2956 91.1029 15.4676 91.3081 15.6887C91.5132 15.9099 91.666 16.1745 91.7553 16.4629C91.8447 16.7516 91.8683 17.0565 91.8241 17.3553V21.3634H90.6064V17.6622C90.6064 16.6671 90.1754 16.1724 89.2748 16.1724C89.0709 16.1628 88.8674 16.1977 88.6783 16.2744C88.4891 16.3512 88.3187 16.468 88.1787 16.6171C88.0388 16.7661 87.9326 16.9438 87.8675 17.1378C87.8024 17.3319 87.7798 17.5378 87.8014 17.7414V21.3636H86.5836V15.172Z" fill="white"/>
<path d="M93.7647 12.755H94.9824V21.3635H93.7647V12.755Z" fill="white"/>
<path d="M96.6754 18.265C96.6366 17.8582 96.6831 17.4476 96.8116 17.0597C96.9403 16.6718 97.1483 16.3153 97.4222 16.0128C97.6963 15.7103 98.0303 15.4687 98.4029 15.3033C98.7755 15.1379 99.1784 15.0525 99.5858 15.0525C99.9932 15.0525 100.396 15.1379 100.769 15.3033C101.141 15.4687 101.475 15.7103 101.749 16.0128C102.023 16.3153 102.231 16.6718 102.36 17.0597C102.488 17.4476 102.535 17.8582 102.496 18.265C102.536 18.6725 102.49 19.0834 102.361 19.472C102.233 19.8605 102.025 20.2177 101.751 20.5207C101.477 20.8238 101.143 21.0661 100.77 21.2317C100.397 21.3974 99.9936 21.4831 99.5858 21.4831C99.1778 21.4831 98.7745 21.3974 98.4016 21.2317C98.0286 21.0661 97.6944 20.8238 97.4203 20.5207C97.1462 20.2177 96.9384 19.8605 96.8101 19.472C96.6818 19.0834 96.6359 18.6725 96.6754 18.265ZM101.243 18.265C101.243 16.923 100.642 16.1382 99.5874 16.1382C98.5288 16.1382 97.9334 16.923 97.9334 18.265C97.9334 19.6179 98.5289 20.3967 99.5874 20.3967C100.642 20.3967 101.243 19.6125 101.243 18.265Z" fill="white"/>
<path d="M103.778 19.6125C103.778 18.4981 104.605 17.8556 106.073 17.7643L107.745 17.6676V17.1331C107.745 16.4792 107.314 16.11 106.481 16.11C105.801 16.11 105.331 16.3604 105.195 16.7982H104.016C104.141 15.7346 105.138 15.0525 106.538 15.0525C108.085 15.0525 108.957 15.8252 108.957 17.1331V21.3636H107.785V20.4935H107.689C107.493 20.8056 107.218 21.06 106.893 21.2308C106.567 21.4016 106.202 21.4825 105.835 21.4656C105.576 21.4926 105.314 21.4649 105.066 21.3842C104.819 21.3035 104.591 21.1715 104.397 20.997C104.203 20.8224 104.048 20.609 103.941 20.3706C103.835 20.1322 103.779 19.8739 103.778 19.6125ZM107.745 19.0836V18.5659L106.238 18.6626C105.388 18.7196 105.003 19.0096 105.003 19.5555C105.003 20.1128 105.484 20.437 106.147 20.437C106.341 20.4568 106.537 20.4371 106.723 20.3792C106.91 20.3214 107.083 20.2265 107.232 20.1001C107.381 19.9739 107.503 19.8188 107.591 19.6442C107.679 19.4695 107.732 19.2788 107.745 19.0836Z" fill="white"/>
<path d="M110.558 18.265C110.558 16.3087 111.56 15.0693 113.119 15.0693C113.505 15.0515 113.888 15.1442 114.223 15.3366C114.558 15.5288 114.831 15.813 115.011 16.1555H115.102V12.755H116.32V21.3635H115.153V20.3853H115.057C114.863 20.7256 114.58 21.0061 114.238 21.1965C113.897 21.387 113.51 21.4801 113.119 21.4655C111.549 21.4656 110.558 20.2262 110.558 18.265ZM111.816 18.265C111.816 19.5783 112.433 20.3685 113.464 20.3685C114.491 20.3685 115.125 19.5669 115.125 18.2704C115.125 16.9801 114.484 16.1671 113.464 16.1671C112.439 16.1671 111.816 16.9626 111.816 18.265Z" fill="white"/>
<path d="M121.359 18.265C121.32 17.8582 121.366 17.4477 121.495 17.0598C121.624 16.672 121.831 16.3154 122.105 16.0129C122.379 15.7104 122.713 15.4687 123.086 15.3034C123.458 15.138 123.861 15.0526 124.269 15.0526C124.676 15.0526 125.079 15.138 125.452 15.3034C125.824 15.4687 126.158 15.7104 126.432 16.0129C126.706 16.3154 126.914 16.672 127.043 17.0598C127.171 17.4477 127.218 17.8582 127.179 18.265C127.218 18.6724 127.172 19.0834 127.044 19.472C126.916 19.8604 126.708 20.2177 126.434 20.5207C126.16 20.8238 125.826 21.066 125.453 21.2317C125.08 21.3974 124.677 21.4831 124.269 21.4831C123.861 21.4831 123.457 21.3974 123.085 21.2317C122.712 21.066 122.378 20.8238 122.103 20.5207C121.829 20.2177 121.621 19.8604 121.493 19.472C121.365 19.0834 121.319 18.6724 121.359 18.265ZM125.926 18.265C125.926 16.923 125.325 16.1382 124.271 16.1382C123.212 16.1382 122.617 16.923 122.617 18.265C122.617 19.6179 123.212 20.3967 124.271 20.3967C125.325 20.3967 125.926 19.6125 125.926 18.265Z" fill="white"/>
<path d="M128.813 15.172H129.985V16.1556H130.076C130.231 15.8023 130.491 15.5062 130.821 15.3085C131.151 15.1108 131.534 15.0213 131.918 15.0525C132.218 15.0298 132.519 15.0753 132.8 15.1854C133.08 15.2956 133.332 15.4676 133.537 15.6887C133.742 15.9099 133.895 16.1745 133.985 16.4629C134.074 16.7516 134.097 17.0565 134.053 17.3553V21.3634H132.836V17.6622C132.836 16.6671 132.405 16.1724 131.504 16.1724C131.3 16.1628 131.097 16.1977 130.908 16.2744C130.718 16.3512 130.548 16.468 130.408 16.6171C130.268 16.7661 130.162 16.9438 130.097 17.1378C130.032 17.3319 130.009 17.5378 130.031 17.7414V21.3636H128.813V15.172Z" fill="white"/>
<path d="M140.934 13.6305V15.2002H142.272V16.2295H140.934V19.4132C140.934 20.0618 141.202 20.3457 141.807 20.3457C141.962 20.3451 142.117 20.3358 142.272 20.3175V21.3353C142.053 21.3746 141.832 21.3955 141.609 21.3977C140.255 21.3977 139.716 20.9198 139.716 19.726V16.2294H138.736V15.2002H139.716V13.6305H140.934Z" fill="white"/>
<path d="M143.935 12.755H145.143V16.1671H145.239C145.4 15.8104 145.668 15.5126 146.005 15.3142C146.342 15.1156 146.731 15.0262 147.12 15.0579C147.419 15.0415 147.718 15.0915 147.995 15.2044C148.271 15.3172 148.521 15.49 148.724 15.7104C148.926 15.931 149.078 16.1936 149.169 16.4799C149.259 16.766 149.285 17.0687 149.246 17.3661V21.3635H148.026V17.6676C148.026 16.6786 147.567 16.1778 146.706 16.1778C146.497 16.1605 146.287 16.1893 146.09 16.2624C145.892 16.3352 145.714 16.4506 145.566 16.6001C145.418 16.7495 145.304 16.9298 145.233 17.1279C145.162 17.3261 145.135 17.5375 145.152 17.7474V21.3635H143.935V12.755Z" fill="white"/>
<path d="M156.346 19.6917C156.181 20.2577 155.822 20.7472 155.333 21.0746C154.845 21.4021 154.257 21.5466 153.672 21.4831C153.265 21.4938 152.862 21.4157 152.488 21.254C152.115 21.0924 151.781 20.8513 151.51 20.5472C151.238 20.2431 151.037 19.8835 150.918 19.4932C150.798 19.1029 150.765 18.6914 150.822 18.2873C150.768 17.8818 150.801 17.4693 150.919 17.078C151.038 16.6865 151.238 16.3252 151.508 16.0184C151.778 15.7118 152.111 15.4668 152.482 15.3001C152.855 15.1335 153.259 15.049 153.666 15.0525C155.384 15.0525 156.42 16.2295 156.42 18.1737V18.6001H152.062V18.6686C152.043 18.8957 152.071 19.1245 152.145 19.34C152.219 19.5556 152.339 19.7532 152.493 19.9201C152.648 20.0872 152.836 20.2199 153.044 20.3098C153.253 20.3997 153.479 20.4448 153.706 20.4423C153.997 20.4774 154.291 20.4247 154.553 20.2911C154.815 20.1574 155.031 19.9488 155.174 19.6917H156.346ZM152.062 17.6965H155.179C155.194 17.4886 155.166 17.2798 155.096 17.0836C155.026 16.8874 154.916 16.708 154.774 16.557C154.63 16.4059 154.457 16.2865 154.265 16.2065C154.073 16.1265 153.868 16.0877 153.66 16.0925C153.45 16.0898 153.24 16.1295 153.046 16.2091C152.85 16.2889 152.673 16.4068 152.524 16.5564C152.376 16.7059 152.258 16.8837 152.178 17.0795C152.099 17.2753 152.059 17.4851 152.062 17.6965Z" fill="white"/>
</g>
<defs>
<clipPath id="clip0_1_275">
<rect width="185" height="55" fill="white" transform="translate(0 0.380005)"/>
</clipPath>
</defs>
</svg>
