<svg width="25" height="25" viewBox="0 0 25 25" fill="none" xmlns="http://www.w3.org/2000/svg">
<path d="M19.0973 6.90722L18.7502 6.60556L17.7602 7.67215L19.9432 9.57915L21.9379 7.64702L20.8962 6.6307L20.5749 6.93955V4.02344H15.7249V5.45994H19.0973V6.90722Z" fill="black"/>
<path d="M23.1933 16.4712L17.719 12.2838C17.5467 12.154 17.3349 12.0835 17.1169 12.0835C16.8989 12.0835 16.6871 12.154 16.5147 12.2838L11.0515 16.4712C10.9059 16.579 10.7993 16.7288 10.7469 16.8991C10.6944 17.0695 10.6989 17.2516 10.7597 17.4194C10.8233 17.5991 10.9436 17.7548 11.1034 17.8644C11.2632 17.974 11.4544 18.0319 11.6499 18.0299H12.8615V21.262H11.4505V22.6985H22.7944V21.262H21.3833V18.0299H22.5949C22.7886 18.033 22.9786 17.9772 23.1381 17.8703C23.2977 17.7634 23.419 17.6108 23.4851 17.4337C23.5482 17.264 23.5539 17.0791 23.5014 16.906C23.449 16.7329 23.341 16.5806 23.1933 16.4712ZM17.1206 13.6701L20.9474 16.5934H13.3048L17.1206 13.6701ZM14.3391 18.0299H16.3818V21.262H14.3391V18.0299ZM19.9057 21.262H17.8594V18.0299H19.9057V21.262Z" fill="black"/>
<path d="M13.1894 6.89716C13.1894 5.76069 12.8428 4.64976 12.1933 3.70482C11.544 2.7599 10.6209 2.02342 9.54092 1.58852C8.46099 1.15361 7.27265 1.03982 6.12619 1.26153C4.97973 1.48324 3.92663 2.0305 3.10008 2.8341C2.27352 3.63769 1.71063 4.66153 1.48258 5.77615C1.25454 6.89077 1.37158 8.0461 1.81891 9.09603C2.26623 10.146 3.02376 11.0434 3.99569 11.6748C4.96761 12.3062 6.11029 12.6432 7.27923 12.6432C8.8467 12.6432 10.35 12.0378 11.4583 10.9602C12.5667 9.88263 13.1894 8.4211 13.1894 6.89716ZM2.84657 6.89716C2.84657 6.0448 3.10653 5.2116 3.5936 4.5029C4.08067 3.79421 4.77295 3.24185 5.58291 2.91567C6.39287 2.5895 7.2841 2.50415 8.14398 2.67044C9.0038 2.83672 9.79368 3.24716 10.4136 3.84986C11.0334 4.45255 11.4556 5.22044 11.6267 6.0564C11.7977 6.89236 11.7099 7.75883 11.3745 8.5463C11.0389 9.33377 10.4708 10.0068 9.74184 10.4804C9.01292 10.9539 8.15592 11.2066 7.27923 11.2066C6.1036 11.2066 4.97614 10.7526 4.14486 9.94443C3.31358 9.13623 2.84657 8.0401 2.84657 6.89716Z" fill="black"/>
<path d="M8.01617 10.2017V9.59115C8.45695 9.52288 8.8548 9.29488 9.12963 8.95295C9.40447 8.61102 9.53592 8.18062 9.49752 7.74828C9.45919 7.31595 9.25382 6.91382 8.92275 6.62273C8.59169 6.33166 8.15955 6.17328 7.71329 6.17946H6.84153C6.76932 6.17158 6.70263 6.1381 6.65421 6.08543C6.60578 6.03276 6.57901 5.9646 6.57901 5.89396C6.57901 5.82331 6.60578 5.75514 6.65421 5.70248C6.70263 5.64981 6.76932 5.61634 6.84153 5.60845H8.75496V4.17194H8.01617V3.59375H6.53864V4.20426C6.09785 4.27253 5.70001 4.50056 5.42517 4.84247C5.15033 5.18438 5.01888 5.6148 5.05727 6.04714C5.09565 6.47947 5.30102 6.88162 5.63206 7.17268C5.96309 7.46375 6.39524 7.62215 6.84153 7.61595H7.71329C7.7855 7.62388 7.85215 7.65735 7.90063 7.71002C7.94904 7.76268 7.97578 7.83082 7.97578 7.90148C7.97578 7.97208 7.94904 8.04028 7.90063 8.09295C7.85215 8.14562 7.7855 8.17908 7.71329 8.18695H5.79986V9.62348H6.53864V10.2017H8.01617Z" fill="black"/>
<path d="M7.15669 18.1559L7.39307 18.3894H5.80104V15.2578H4.32349V19.8259H7.51499L7.13083 20.2425L8.22792 21.2049L10.1893 19.0825L8.20207 17.1432L7.15669 18.1559Z" fill="black"/>
</svg>
