<svg width="37" height="25" viewBox="0 0 37 25" fill="none" xmlns="http://www.w3.org/2000/svg">
<mask id="mask0_1_486" style="mask-type:luminance" maskUnits="userSpaceOnUse" x="1" y="0" width="35" height="25">
<path d="M35.5933 0.626465H1.11725V24.2672H35.5933V0.626465Z" fill="white"/>
</mask>
<g mask="url(#mask0_1_486)">
<path d="M34.5813 8.28432H31.4165V4.84441C31.4165 3.69871 30.0572 2.7666 28.3864 2.7666H24.4136C23.8558 2.7666 23.4035 3.0767 23.4035 3.45921V5.53701H2.12534C1.56753 5.53701 1.1153 5.84711 1.1153 6.22961V18.6964C1.1153 19.0789 1.56753 19.389 2.12534 19.389H3.26676V21.4437C3.26676 21.8262 3.71899 22.1363 4.2768 22.1363H34.5813C35.1392 22.1363 35.5914 21.8262 35.5914 21.4437V8.9769C35.5914 8.59441 35.1392 8.28432 34.5813 8.28432ZM25.4236 4.15181H28.3864C28.9434 4.15181 29.3965 4.46251 29.3965 4.84441V15.3521C28.5874 15.1554 28.1448 15.2646 25.4236 15.2334V4.15181ZM24.4136 16.6186H28.3864C28.9434 16.6186 29.3965 16.9293 29.3965 17.3112C29.3965 17.6931 28.9434 18.0038 28.3864 18.0038H9.19072C8.74422 15.8593 6.26322 14.1587 3.13538 13.8536V11.077C6.26544 10.7716 8.74772 9.06885 9.19167 6.92221H23.4035V15.926C23.4035 16.3085 23.8558 16.6186 24.4136 16.6186ZM7.1429 6.92221C6.73935 8.30359 5.14948 9.3945 3.13538 9.67214V6.92221H7.1429ZM3.13538 15.2585C5.14725 15.5358 6.73598 16.6245 7.14175 18.0038H3.13538V15.2585ZM33.5713 20.7512H5.28684V19.389H28.3864C30.0572 19.389 31.4165 18.4569 31.4165 17.3112V9.66954H33.5713V20.7512Z" fill="black"/>
<path d="M18.3529 9.06396C15.5941 9.06396 13.3496 10.6031 13.3496 12.4947C13.3496 14.3865 15.5941 15.9255 18.3529 15.9255C21.1116 15.9255 23.3561 14.3864 23.3561 12.4947C23.3561 10.603 21.1116 9.06396 18.3529 9.06396ZM18.3529 14.5403C16.708 14.5403 15.3697 13.6227 15.3697 12.4947C15.3697 11.3668 16.708 10.4491 18.3529 10.4491C19.9977 10.4491 21.336 11.3668 21.336 12.4947C21.336 13.6227 19.9977 14.5403 18.3529 14.5403Z" fill="black"/>
</g>
</svg>
