<svg width="186" height="56" viewBox="0 0 186 56" fill="none" xmlns="http://www.w3.org/2000/svg">
<g clip-path="url(#clip0_1_1385)">
<path d="M178.645 55.06H7.354C3.577 55.06 0.5 51.96 0.5 48.185V6.935C0.5 3.146 3.577 0.0599976 7.354 0.0599976H178.645C182.419 0.0599976 185.5 3.146 185.5 6.935V48.185C185.5 51.96 182.419 55.06 178.645 55.06Z" fill="black"/>
<path d="M178.645 1.161C181.814 1.161 184.408 3.756 184.408 6.935V48.185C184.408 51.364 181.832 53.959 178.645 53.959H7.354C4.186 53.959 1.592 51.364 1.592 48.185V6.935C1.592 3.756 4.169 1.161 7.354 1.161H178.645ZM178.645 0.0599976H7.354C3.577 0.0599976 0.5 3.16 0.5 6.935V48.185C0.5 51.974 3.577 55.06 7.354 55.06H178.645C182.419 55.06 185.5 51.974 185.5 48.185V6.935C185.5 3.16 182.419 0.0599976 178.645 0.0599976Z" fill="#A6A6A6"/>
<path d="M97.959 18.254C96.723 18.254 95.682 17.818 94.858 16.961C94.041 16.128 93.585 14.979 93.606 13.806C93.606 12.555 94.028 11.495 94.858 10.655C95.678 9.79801 96.72 9.36301 97.955 9.36301C99.177 9.36301 100.218 9.79801 101.056 10.655C101.886 11.523 102.308 12.582 102.308 13.806C102.294 15.062 101.872 16.121 101.056 16.958C100.235 17.822 99.194 18.254 97.959 18.254ZM61.199 18.254C59.991 18.254 58.943 17.825 58.085 16.978C57.234 16.135 56.802 15.068 56.802 13.81C56.802 12.552 57.234 11.485 58.085 10.642C58.926 9.79501 59.974 9.36601 61.199 9.36601C61.798 9.36601 62.38 9.48601 62.938 9.73001C63.486 9.96601 63.932 10.288 64.262 10.683L64.344 10.782L63.421 11.694L63.326 11.581C62.805 10.957 62.108 10.652 61.185 10.652C60.362 10.652 59.644 10.947 59.052 11.53C58.456 12.116 58.153 12.884 58.153 13.813C58.153 14.743 58.456 15.511 59.052 16.097C59.644 16.68 60.362 16.975 61.185 16.975C62.063 16.975 62.802 16.68 63.377 16.097C63.718 15.754 63.928 15.274 64.003 14.667H61.046V13.385H65.273L65.29 13.501C65.32 13.717 65.351 13.94 65.351 14.146C65.351 15.329 64.997 16.286 64.296 16.992C63.5 17.829 62.458 18.254 61.199 18.254ZM110.074 18.072H108.771L104.779 11.636L104.813 12.795V18.069H103.509V9.54801H104.997L105.037 9.61301L108.791 15.675L108.757 14.52V9.54801H110.074V18.072ZM88.164 18.072H86.843V10.83H84.553V9.54801H90.451V10.83H88.16V18.072H88.164ZM83.477 18.072H82.16V9.54801H83.477V18.072ZM76.075 18.072H74.758V10.83H72.467V9.54801H78.365V10.83H76.075V18.072ZM71.634 18.058H66.583V9.54801H71.634V10.83H67.904V13.169H71.269V14.437H67.904V16.776H71.634V18.058ZM95.825 16.08C96.413 16.673 97.128 16.971 97.959 16.971C98.813 16.971 99.51 16.68 100.092 16.08C100.671 15.497 100.964 14.732 100.964 13.81C100.964 12.888 100.671 12.119 100.096 11.54C99.507 10.947 98.789 10.648 97.962 10.648C97.108 10.648 96.41 10.94 95.831 11.54C95.253 12.123 94.96 12.888 94.96 13.81C94.96 14.732 95.249 15.5 95.825 16.08Z" fill="white"/>
<path d="M93.483 29.974C90.267 29.974 87.66 32.432 87.66 35.824C87.66 39.184 90.284 41.673 93.483 41.673C96.699 41.673 99.306 39.198 99.306 35.824C99.306 32.432 96.699 29.974 93.483 29.974ZM93.483 39.355C91.724 39.355 90.209 37.888 90.209 35.81C90.209 33.701 91.727 32.264 93.483 32.264C95.243 32.264 96.757 33.701 96.757 35.81C96.761 37.902 95.243 39.355 93.483 39.355ZM80.778 29.974C77.562 29.974 74.955 32.432 74.955 35.824C74.955 39.184 77.579 41.673 80.778 41.673C83.995 41.673 86.601 39.198 86.601 35.824C86.601 32.432 83.991 29.974 80.778 29.974ZM80.778 39.355C79.019 39.355 77.504 37.888 77.504 35.81C77.504 33.701 79.022 32.264 80.778 32.264C82.538 32.264 84.052 33.701 84.052 35.81C84.052 37.902 82.538 39.355 80.778 39.355ZM65.661 31.76V34.236H71.559C71.378 35.625 70.922 36.65 70.225 37.353C69.36 38.224 68.026 39.17 65.674 39.17C62.05 39.17 59.215 36.221 59.215 32.57C59.215 28.918 62.05 25.969 65.674 25.969C67.631 25.969 69.057 26.747 70.116 27.742L71.858 25.986C70.388 24.566 68.431 23.48 65.688 23.48C60.716 23.48 56.543 27.56 56.543 32.556C56.543 37.566 60.712 41.632 65.688 41.632C68.373 41.632 70.388 40.748 71.981 39.081C73.604 37.446 74.118 35.138 74.118 33.276C74.118 32.697 74.074 32.175 73.982 31.733H65.657C65.661 31.73 65.661 31.76 65.661 31.76ZM127.496 33.687C127.01 32.374 125.539 29.96 122.524 29.96C119.536 29.96 117.052 32.33 117.052 35.81C117.052 39.095 119.509 41.66 122.813 41.66C125.468 41.66 127.013 40.024 127.65 39.064L125.679 37.734C125.026 38.711 124.117 39.352 122.827 39.352C121.523 39.352 120.611 38.755 120.006 37.579L127.769 34.339C127.769 34.342 127.496 33.687 127.496 33.687ZM119.58 35.642C119.519 33.382 121.323 32.234 122.613 32.234C123.63 32.234 124.478 32.738 124.767 33.471L119.58 35.642ZM113.274 41.31H115.823V24.124H113.274V41.31ZM109.088 31.273H108.996C108.421 30.584 107.328 29.96 105.933 29.96C103.036 29.96 100.368 32.529 100.368 35.827C100.368 39.112 103.023 41.649 105.933 41.649C107.311 41.649 108.421 41.022 108.996 40.319H109.088V41.159C109.088 43.391 107.903 44.595 105.994 44.595C104.432 44.595 103.462 43.463 103.067 42.517L100.851 43.45C101.488 44.993 103.186 46.903 105.991 46.903C108.979 46.903 111.511 45.13 111.511 40.806V30.31H109.101V31.273C109.105 31.273 109.088 31.273 109.088 31.273ZM106.161 39.355C104.401 39.355 102.931 37.874 102.931 35.827C102.931 33.763 104.401 32.268 106.161 32.268C107.903 32.268 109.254 33.78 109.254 35.827C109.271 37.874 107.907 39.355 106.161 39.355ZM139.432 24.124H133.337V41.31H135.886V34.802H139.435C142.257 34.802 145.03 32.741 145.03 29.47C145.03 26.199 142.268 24.124 139.432 24.124ZM139.506 32.402H135.882V26.504H139.506C141.417 26.504 142.495 28.091 142.495 29.453C142.495 30.8 141.403 32.402 139.506 32.402ZM155.248 29.943C153.396 29.943 151.487 30.77 150.697 32.57L152.956 33.516C153.444 32.57 154.335 32.247 155.278 32.247C156.599 32.247 157.932 33.043 157.964 34.462V34.644C157.507 34.384 156.507 33.986 155.309 33.986C152.869 33.986 150.394 35.33 150.394 37.85C150.394 40.158 152.396 41.639 154.624 41.639C156.337 41.639 157.279 40.861 157.868 39.959H157.96V41.289H160.417V34.706C160.417 31.64 158.157 29.943 155.248 29.943ZM154.927 39.355C154.094 39.355 152.926 38.944 152.926 37.888C152.926 36.557 154.383 36.053 155.625 36.053C156.748 36.053 157.279 36.297 157.946 36.633C157.762 38.176 156.469 39.342 154.927 39.355ZM169.382 30.31L166.455 37.764H166.363L163.33 30.31H160.587L165.138 40.73L162.545 46.522H165.199L172.199 30.31H169.382ZM146.436 41.31H148.985V24.124H146.436V41.31Z" fill="white"/>
<path d="M14.7399 10.419C14.3449 10.847 14.1169 11.502 14.1169 12.36V42.764C14.1169 43.621 14.3449 44.276 14.7529 44.687L14.8589 44.78L31.7669 27.745V27.364L14.8449 10.326L14.7399 10.419Z" fill="url(#paint0_linear_1_1385)"/>
<path d="M37.392 33.441L31.7531 27.759V27.361L37.392 21.679L37.5151 21.755L44.1851 25.575C46.0951 26.658 46.0951 28.448 44.1851 29.545L37.5151 33.365L37.392 33.441Z" fill="url(#paint1_linear_1_1385)"/>
<path d="M37.515 33.365L31.753 27.56L14.74 44.701C15.362 45.373 16.407 45.449 17.575 44.794L37.515 33.365Z" fill="url(#paint2_linear_1_1385)"/>
<path d="M37.515 21.755L17.575 10.343C16.407 9.67099 15.359 9.76399 14.74 10.436L31.753 27.56L37.515 21.755Z" fill="url(#paint3_linear_1_1385)"/>
<path opacity="0.2" d="M37.392 33.242L17.5881 44.578C16.4821 45.219 15.4951 45.174 14.8591 44.592L14.7531 44.698L14.8591 44.79C15.4951 45.37 16.4821 45.418 17.5881 44.777L37.5291 33.365L37.392 33.242Z" fill="black"/>
<path opacity="0.12" d="M44.186 29.347L37.375 33.242L37.498 33.365L44.169 29.545C45.125 28.997 45.595 28.277 45.595 27.56C45.537 28.218 45.05 28.842 44.186 29.347Z" fill="black"/>
<path opacity="0.25" d="M17.5749 10.542L44.1859 25.774C45.0499 26.264 45.5369 26.905 45.6119 27.56C45.6119 26.843 45.1419 26.123 44.1859 25.575L17.5749 10.343C15.6649 9.24301 14.1169 10.162 14.1169 12.36V12.558C14.1169 10.357 15.6649 9.45501 17.5749 10.542Z" fill="white"/>
</g>
<defs>
<linearGradient id="paint0_linear_1_1385" x1="31.7669" y1="22.8683" x2="13.1726" y2="25.4587" gradientUnits="userSpaceOnUse">
<stop stop-color="#00A0FF"/>
<stop offset="1" stop-color="#00E3FF"/>
</linearGradient>
<linearGradient id="paint1_linear_1_1385" x1="45.6176" y1="27.5305" x2="31.7532" y2="27.6126" gradientUnits="userSpaceOnUse">
<stop stop-color="#FFE000"/>
<stop offset="1" stop-color="#FF9C00"/>
</linearGradient>
<linearGradient id="paint2_linear_1_1385" x1="32.816" y1="27.56" x2="23.8338" y2="47.2518" gradientUnits="userSpaceOnUse">
<stop stop-color="#FF3A44"/>
<stop offset="1" stop-color="#C31162"/>
</linearGradient>
<linearGradient id="paint3_linear_1_1385" x1="19.3144" y1="9.88309" x2="28.484" y2="29.6295" gradientUnits="userSpaceOnUse">
<stop stop-color="#32A071"/>
<stop offset="1" stop-color="#00F076"/>
</linearGradient>
<clipPath id="clip0_1_1385">
<rect width="185" height="55" fill="white" transform="translate(0.5 0.0599976)"/>
</clipPath>
</defs>
</svg>
