<svg width="185" height="56" viewBox="0 0 185 56" fill="none" xmlns="http://www.w3.org/2000/svg">
<g clip-path="url(#clip0_1_302)">
<mask id="mask0_1_302" style="mask-type:luminance" maskUnits="userSpaceOnUse" x="0" y="0" width="185" height="56">
<path d="M185 0.380005H0V55.38H185V0.380005Z" fill="white"/>
</mask>
<g mask="url(#mask0_1_302)">
<path fill-rule="evenodd" clip-rule="evenodd" d="M178.145 55.38H6.85437C3.07665 55.38 0 52.2802 0 48.505V7.255C0 3.46604 3.07665 0.380005 6.85437 0.380005H178.145C181.919 0.380005 185 3.46604 185 7.255V48.505C185 52.2802 181.919 55.38 178.145 55.38Z" fill="black"/>
<path fill-rule="evenodd" clip-rule="evenodd" d="M178.145 1.48069C181.314 1.48069 183.908 4.07639 183.908 7.255V48.505C183.908 51.6836 181.332 54.2793 178.145 54.2793H6.85437C3.68584 54.2793 1.09248 51.6836 1.09248 48.505V7.255C1.09248 4.07639 3.66882 1.48069 6.85437 1.48069H178.145ZM178.145 0.380005H6.85437C3.07665 0.380005 0 3.47975 0 7.255V48.505C0 52.294 3.07665 55.38 6.85437 55.38H178.145C181.919 55.38 185 52.294 185 48.505V7.255C185 3.47975 181.919 0.380005 178.145 0.380005Z" fill="#A6A6A6"/>
<path d="M97.4585 18.5739C96.223 18.5739 95.1817 18.1384 94.3581 17.2811C93.5412 16.4479 93.0851 15.2992 93.1056 14.1265C93.1056 12.875 93.5276 11.8154 94.3581 10.9753C95.1782 10.1181 96.2196 9.68262 97.4551 9.68262C98.6768 9.68262 99.7183 10.1181 100.556 10.9753C101.386 11.8429 101.808 12.9024 101.808 14.1265C101.794 15.3815 101.372 16.441 100.556 17.2777C99.7353 18.1419 98.6939 18.5739 97.4585 18.5739ZM60.699 18.5739C59.4908 18.5739 58.4426 18.1452 57.5849 17.2983C56.734 16.4547 56.3018 15.3884 56.3018 14.1299C56.3018 12.8715 56.734 11.8051 57.5849 10.9616C58.4256 10.1147 59.4738 9.68605 60.699 9.68605C61.298 9.68605 61.8799 9.80606 62.438 10.0495C62.986 10.2861 63.4318 10.6084 63.7619 11.0028L63.8436 11.1022L62.9214 12.0143L62.8261 11.9011C62.3054 11.2771 61.6076 10.9719 60.6853 10.9719C59.8617 10.9719 59.1437 11.2668 58.5515 11.8497C57.9558 12.4361 57.653 13.2041 57.653 14.1333C57.653 15.0627 57.9558 15.8307 58.5515 16.4171C59.1437 16.9999 59.8617 17.2949 60.6853 17.2949C61.5635 17.2949 62.302 16.9999 62.8771 16.4171C63.2175 16.0741 63.4284 15.5941 63.5034 14.9872H60.5458V13.7048H64.7727L64.7897 13.8213C64.8204 14.0374 64.851 14.2602 64.851 14.4659C64.851 15.649 64.4972 16.6056 63.7961 17.312C62.9996 18.1486 61.9583 18.5739 60.699 18.5739ZM109.574 18.3921H108.271L104.279 11.956L104.313 13.115V18.3887H103.009V9.86779H104.497L104.537 9.93294L108.291 15.9953L108.257 14.8398V9.86779H109.574V18.3921ZM87.6637 18.3921H86.3432V11.1502H84.0527V9.86779H89.9507V11.1502H87.6602V18.3921H87.6637ZM82.9773 18.3921H81.6601V9.86779H82.9773V18.3921ZM75.575 18.3921H74.2579V11.1502H71.9675V9.86779H77.8654V11.1502H75.575V18.3921ZM71.1336 18.3784H66.0831V9.86779H71.1336V11.1502H67.4036V13.4887H70.7695V14.7574H67.4036V17.096H71.1336V18.3784ZM95.3246 16.3999C95.9133 16.993 96.6281 17.2914 97.4585 17.2914C98.3127 17.2914 99.0103 16.9999 99.5923 16.3999C100.171 15.817 100.464 15.0524 100.464 14.1299C100.464 13.2076 100.171 12.4395 99.5958 11.86C99.0069 11.2668 98.2888 10.9685 97.4618 10.9685C96.6077 10.9685 95.9099 11.2599 95.3314 11.86C94.7529 12.4429 94.4602 13.2076 94.4602 14.1299C94.4602 15.0524 94.7495 15.8204 95.3246 16.3999Z" fill="white"/>
<path fill-rule="evenodd" clip-rule="evenodd" d="M92.9832 30.294C89.7669 30.294 87.1599 32.7525 87.1599 36.1438C87.1599 39.5041 89.7839 41.9934 92.9832 41.9934C96.1993 41.9934 98.8063 39.5177 98.8063 36.1438C98.8063 32.7525 96.1993 30.294 92.9832 30.294ZM92.9832 39.6754C91.2236 39.6754 89.7091 38.2079 89.7091 36.13C89.7091 34.0212 91.2271 32.5844 92.9832 32.5844C94.7427 32.5844 96.2571 34.0212 96.2571 36.13C96.2606 38.2217 94.7427 39.6754 92.9832 39.6754ZM80.2784 30.294C77.0622 30.294 74.4552 32.7525 74.4552 36.1438C74.4552 39.5041 77.0792 41.9934 80.2784 41.9934C83.4946 41.9934 86.1015 39.5177 86.1015 36.1438C86.1015 32.7525 83.4912 30.294 80.2784 30.294ZM80.2784 39.6754C78.5188 39.6754 77.0044 38.2079 77.0044 36.13C77.0044 34.0212 78.5222 32.5844 80.2784 32.5844C82.0379 32.5844 83.5524 34.0212 83.5524 36.13C83.5524 38.2217 82.0379 39.6754 80.2784 39.6754ZM65.1606 32.0805V34.5562H71.0586C70.8783 35.9448 70.4222 36.9701 69.7246 37.673C68.86 38.544 67.526 39.4904 65.1743 39.4904C61.5496 39.4904 58.7146 36.5414 58.7146 32.8897C58.7146 29.2378 61.5496 26.289 65.1743 26.289C67.1312 26.289 68.5572 27.0674 69.6156 28.0618L71.3582 26.3062C69.8879 24.8865 67.9309 23.7996 65.1878 23.7996C60.2156 23.7996 56.0429 27.88 56.0429 32.8759C56.0429 37.8856 60.2122 41.9523 65.1878 41.9523C67.8731 41.9523 69.8879 41.0676 71.4807 39.4011C73.104 37.7656 73.6179 35.4579 73.6179 33.596C73.6179 33.0166 73.5737 32.4953 73.4819 32.053H65.1573C65.1606 32.0496 65.1606 32.0805 65.1606 32.0805ZM126.996 34.0074C126.51 32.6942 125.039 30.2802 122.024 30.2802C119.036 30.2802 116.552 32.6496 116.552 36.13C116.552 39.4149 119.009 41.9798 122.313 41.9798C124.968 41.9798 126.513 40.3441 127.15 39.3841L125.179 38.0536C124.526 39.0308 123.617 39.6721 122.327 39.6721C121.023 39.6721 120.111 39.0754 119.506 37.8994L127.269 34.659C127.269 34.6625 126.996 34.0074 126.996 34.0074ZM119.08 35.962C119.019 33.7023 120.823 32.5536 122.113 32.5536C123.13 32.5536 123.978 33.0577 124.267 33.7914L119.08 35.962ZM112.774 41.63H115.323V24.4442H112.774V41.63ZM108.588 31.5935H108.496C107.921 30.9043 106.828 30.2802 105.433 30.2802C102.536 30.2802 99.8682 32.8486 99.8682 36.1472C99.8682 39.4321 102.523 41.9695 105.433 41.9695C106.811 41.9695 107.921 41.3419 108.496 40.639H108.588V41.4792C108.588 43.7113 107.403 44.9149 105.494 44.9149C103.932 44.9149 102.962 43.7834 102.567 42.837L100.351 43.7696C100.988 45.3127 102.686 47.2225 105.491 47.2225C108.479 47.2225 111.011 45.4498 111.011 41.1259V30.63H108.601V31.5935C108.605 31.5935 108.588 31.5935 108.588 31.5935ZM105.661 39.6754C103.901 39.6754 102.431 38.1942 102.431 36.1472C102.431 34.0829 103.901 32.5879 105.661 32.5879C107.403 32.5879 108.754 34.1001 108.754 36.1472C108.771 38.1942 107.407 39.6754 105.661 39.6754ZM138.932 24.4442H132.837V41.63H135.386V35.1219H138.935C141.757 35.1219 144.53 33.0611 144.53 29.7899C144.53 26.5188 141.768 24.4442 138.932 24.4442ZM139.006 32.7217H135.382V26.8239H139.006C140.917 26.8239 141.995 28.4114 141.995 29.7727C141.995 31.1203 140.903 32.7217 139.006 32.7217ZM154.748 30.2632C152.896 30.2632 150.987 31.0895 150.197 32.8897L152.456 33.8361C152.944 32.8897 153.835 32.5674 154.778 32.5674C156.099 32.5674 157.432 33.3628 157.464 34.7824V34.9641C157.007 34.7036 156.007 34.3058 154.809 34.3058C152.369 34.3058 149.894 35.65 149.894 38.1702C149.894 40.4779 151.896 41.9592 154.124 41.9592C155.837 41.9592 156.779 41.1808 157.368 40.2789H157.46V41.6094H159.917V35.0259C159.917 31.9605 157.657 30.2632 154.748 30.2632ZM154.427 39.6754C153.594 39.6754 152.426 39.264 152.426 38.2079C152.426 36.8775 153.883 36.3734 155.125 36.3734C156.248 36.3734 156.779 36.6169 157.446 36.9529C157.262 38.496 155.969 39.6618 154.427 39.6754ZM168.882 30.63L165.955 38.0844H165.863L162.83 30.63H160.087L164.638 41.0504L162.045 46.8419H164.699L171.699 30.63H168.882ZM145.936 41.63H148.485V24.4442H145.936V41.63Z" fill="white"/>
<path opacity="0.2" fill-rule="evenodd" clip-rule="evenodd" d="M36.8924 33.5618L17.0881 44.8978C15.9821 45.539 14.9951 45.4944 14.3586 44.9116L14.2531 45.0179L14.3586 45.1104C14.9951 45.69 15.9821 45.7379 17.0881 45.0966L37.0285 33.6852L36.8924 33.5618Z" fill="black"/>
<path opacity="0.12" fill-rule="evenodd" clip-rule="evenodd" d="M43.6856 29.6665L36.8754 33.5618L36.9979 33.6851L43.6686 29.8654C44.6249 29.3167 45.0946 28.5967 45.0946 27.88C45.0367 28.5384 44.5501 29.1625 43.6856 29.6665Z" fill="black"/>
<path opacity="0.25" fill-rule="evenodd" clip-rule="evenodd" d="M17.0747 10.8623L43.6856 26.0936C44.5501 26.5839 45.0367 27.2251 45.1116 27.88C45.1116 27.1633 44.642 26.4433 43.6856 25.8946L17.0747 10.6634C15.1655 9.56271 13.6169 10.4817 13.6169 12.6796V12.8785C13.6169 10.6771 15.1655 9.7753 17.0747 10.8623Z" fill="white"/>
</g>
</g>
<defs>
<clipPath id="clip0_1_302">
<rect width="185" height="55" fill="white" transform="translate(0 0.380005)"/>
</clipPath>
</defs>
</svg>
