<svg width="120" height="43" viewBox="0 0 120 43" fill="none" xmlns="http://www.w3.org/2000/svg">
<g clip-path="url(#clip0_1_524)">
<g clip-path="url(#clip1_1_524)">
<path d="M85.63 16.7048C85.404 16.6348 85.173 16.7048 84.946 16.6698C84.8801 15.979 84.8801 15.2835 84.946 14.5928C86.404 14.5928 87.862 14.5888 89.321 14.5868C89.874 14.5868 90.424 14.5908 90.977 14.5928C91.119 14.9268 91.174 15.2888 91.259 15.6408C91.775 17.7488 92.296 19.8558 92.804 21.9668C92.834 22.0918 92.865 22.2168 92.914 22.3358C92.928 22.3828 92.928 22.4348 92.947 22.4818C92.998 22.4518 92.975 22.3878 92.997 22.3448C93.217 21.6518 93.362 20.9368 93.537 20.2308C93.989 18.4258 94.427 16.6158 94.879 14.8108C94.899 14.7338 94.916 14.6578 94.964 14.5958C95.49 14.5948 96.016 14.5888 96.54 14.5888C97.954 14.5888 99.366 14.5888 100.779 14.5858C100.919 14.5858 100.972 14.6058 100.967 14.7798C100.955 15.3498 100.957 15.9208 100.967 16.4898C100.968 16.6378 100.942 16.6878 100.798 16.6828C100.623 16.6758 100.446 16.6428 100.273 16.7058C100.257 16.7398 100.227 16.7558 100.199 16.7728C99.972 16.9028 99.871 17.1108 99.874 17.3888C99.876 17.5978 99.874 17.8048 99.874 18.0148V25.6648C99.874 25.7738 99.874 25.8818 99.895 25.9868C99.946 26.2498 100.17 26.4468 100.415 26.4568C100.597 26.4648 100.783 26.4218 100.959 26.5008V28.5338C100.852 28.5798 100.742 28.5788 100.63 28.5788H95.607C95.495 28.5788 95.385 28.5818 95.28 28.5288L95.285 28.5348C95.251 28.4406 95.2357 28.3408 95.24 28.2408V26.7508C95.24 26.6638 95.239 26.5768 95.285 26.5008L95.28 26.5068C95.508 26.4088 95.746 26.4668 95.982 26.4608C96.439 26.4508 96.384 26.4918 96.384 26.0188V19.5288C96.384 18.9818 96.396 18.4328 96.364 17.8868C96.364 17.7978 96.376 17.7078 96.376 17.6088C96.365 17.6688 96.358 17.7188 96.345 17.7678C96.327 17.8408 96.314 17.9148 96.295 17.9888C95.97 19.0588 95.73 20.1588 95.449 21.2438C95.145 22.4168 94.856 23.5948 94.559 24.7718C94.261 25.9628 93.955 27.1508 93.658 28.3418C93.641 28.4108 93.626 28.4818 93.572 28.5318L93.582 28.5238C93.502 28.5788 93.411 28.5788 93.32 28.5788H91.637C91.5461 28.5856 91.4551 28.5673 91.374 28.5258L91.382 28.5338C91.226 28.2358 91.187 27.8958 91.106 27.5738C90.735 26.0678 90.354 24.5658 89.982 23.0608C89.632 21.6408 89.269 20.2218 88.922 18.7998C88.856 18.5298 88.779 18.2618 88.698 17.9968L88.649 17.8068C88.636 17.7388 88.619 17.6718 88.611 17.6028C88.624 17.7228 88.628 17.8418 88.628 17.9628C88.591 20.6898 88.621 23.4188 88.611 26.1458C88.611 26.4578 88.611 26.4508 88.894 26.4618C89.182 26.4718 89.471 26.4118 89.755 26.5028V28.5368C89.649 28.5838 89.538 28.5818 89.427 28.5818H85.27C85.158 28.5818 85.048 28.5858 84.942 28.5328L84.948 28.5388C84.9142 28.4446 84.8989 28.3447 84.903 28.2448V26.7538C84.903 26.6668 84.901 26.5808 84.947 26.5038L84.942 26.5098C85.077 26.4288 85.224 26.4738 85.363 26.4608C85.447 26.4598 85.531 26.4668 85.615 26.4538C85.919 26.3318 86.047 26.0858 86.047 25.7358C86.046 22.9728 86.042 20.2088 86.05 17.4458C86.05 17.0828 85.878 16.8778 85.626 16.7098L85.63 16.7048ZM108.068 19.3268C108.109 19.2748 108.077 19.1878 108.137 19.1428C108.231 19.0888 108.329 19.1198 108.426 19.1198C108.859 19.1161 109.292 19.1161 109.725 19.1198C109.789 19.1198 109.856 19.0978 109.915 19.1428L109.956 19.1828C109.997 19.2858 109.993 19.3938 109.993 19.5028V23.4128C109.993 23.5198 110.004 23.6298 109.948 23.7268L109.953 23.7218C109.889 23.7688 109.817 23.7688 109.744 23.7688H108.308C108.235 23.7688 108.163 23.7688 108.1 23.7198C108.092 23.6728 108.105 23.6198 108.068 23.5808C107.974 23.3178 107.986 23.0328 107.948 22.7598C107.926 22.6008 107.864 22.5398 107.739 22.5378C107.332 22.5315 106.925 22.5315 106.518 22.5378C106.388 22.5398 106.32 22.6078 106.32 22.7688C106.324 23.8708 106.324 24.9728 106.32 26.0748C106.32 26.2228 106.381 26.2848 106.503 26.2988C106.556 26.3048 106.608 26.3028 106.661 26.3028H109.496C109.808 26.3028 109.835 26.2708 109.872 25.9288C109.932 25.3808 110.012 24.8358 110.083 24.2888C110.085 24.2604 110.097 24.2335 110.116 24.2128L110.149 24.1568C110.221 24.1242 110.3 24.1098 110.379 24.1148H112.05C112.129 24.1148 112.208 24.1138 112.277 24.1648L112.272 24.1588C112.325 24.2488 112.317 24.3518 112.317 24.4528V28.1938C112.317 28.3098 112.317 28.4238 112.272 28.5318L112.277 28.5268C112.159 28.5651 112.035 28.5814 111.911 28.5748H102.036C101.924 28.5748 101.812 28.5748 101.705 28.5338L101.674 28.4888C101.634 28.4488 101.647 28.3948 101.647 28.3458V26.6858C101.647 26.6358 101.636 26.5838 101.67 26.5408L101.707 26.4958C101.873 26.4258 102.045 26.4618 102.215 26.4558C102.517 26.4488 102.732 26.2398 102.775 25.9108C102.788 25.8108 102.792 25.7108 102.792 25.6098C102.792 22.9348 102.788 20.2578 102.797 17.5838C102.797 17.1988 102.716 16.8908 102.385 16.7068C102.216 16.6338 102.04 16.6918 101.869 16.6738C101.802 16.6668 101.725 16.7068 101.67 16.6268C101.624 16.5398 101.649 16.4448 101.649 16.3528C101.646 15.8488 101.647 15.3458 101.649 14.8398C101.649 14.7698 101.628 14.6958 101.672 14.6308C101.72 14.5568 101.791 14.5838 101.853 14.5838H111.935C111.998 14.5838 112.068 14.5568 112.116 14.6308C112.151 14.6738 112.139 14.7268 112.139 14.7748V18.5578C112.139 18.6078 112.154 18.6608 112.113 18.7008C112.101 18.7148 112.091 18.7308 112.08 18.7458C111.96 18.7928 111.835 18.7878 111.712 18.7878H110.316C110.231 18.7912 110.146 18.7751 110.068 18.7408L110.032 18.6048C109.92 18.3808 109.952 18.1198 109.877 17.8848C109.838 17.6158 109.792 17.3468 109.748 17.0778C109.726 16.9498 109.664 16.8798 109.532 16.8798C108.521 16.8818 107.511 16.8818 106.5 16.8798C106.361 16.8798 106.317 16.9428 106.317 17.0868C106.32 18.0968 106.317 19.1048 106.319 20.1138C106.319 20.2028 106.314 20.2998 106.431 20.2978C106.916 20.2908 107.4 20.3278 107.884 20.2778C107.984 20.0288 107.968 19.7548 108.014 19.4948C108.025 19.4338 108.002 19.3648 108.061 19.3198L108.068 19.3268ZM10.97 14.5568C11.043 14.6068 11.123 14.5858 11.2 14.5858C11.957 14.5888 12.711 14.5888 13.467 14.5908C13.51 14.7068 13.508 14.8288 13.508 14.9518V18.7718C13.508 18.8958 13.503 19.0168 13.472 19.1358L13.428 19.1838C13.3012 19.2191 13.1692 19.2319 13.038 19.2218C12.461 19.2098 11.886 19.2488 11.309 19.2008C11.276 19.1968 11.243 19.2008 11.222 19.1678L11.186 19.1358C11.072 18.8058 11.051 18.4518 10.986 18.1108C10.938 17.8648 10.903 17.6158 10.86 17.3708C10.837 17.2368 10.78 17.1358 10.643 17.0998C9.92798 16.9158 9.21198 16.8348 8.48698 17.0418C7.79798 17.2388 7.30198 17.7018 6.95698 18.3698C6.66198 18.9398 6.52398 19.5648 6.44198 20.2128C6.34572 21.0278 6.33566 21.8507 6.41198 22.6678C6.47998 23.4548 6.60598 24.2338 6.95798 24.9438C7.38798 25.8078 8.03798 26.2718 8.94398 26.2828C9.33198 26.2878 9.71398 26.2698 10.094 26.1688C10.216 26.1368 10.28 26.0768 10.284 25.9398C10.3 25.2778 10.294 24.6128 10.287 23.9508C10.287 23.7828 10.181 23.7518 10.065 23.7488C9.84098 23.7428 9.61798 23.7488 9.39498 23.7468C9.35598 23.7468 9.31498 23.7568 9.28198 23.7218L9.24198 23.6818C9.21855 23.6212 9.20668 23.5567 9.20698 23.4918C9.20498 22.9528 9.20298 22.4148 9.20698 21.8758C9.20119 21.797 9.21492 21.718 9.24698 21.6458L9.24298 21.6518C9.34798 21.6018 9.45798 21.6018 9.56998 21.6018H14.199C14.31 21.6018 14.422 21.6018 14.527 21.6478V23.7238C14.4644 23.7599 14.3918 23.775 14.32 23.7668C14.04 23.7368 13.867 23.8898 13.75 24.1498C13.735 24.1818 13.724 24.2148 13.692 24.2328C13.642 24.3028 13.666 24.3858 13.666 24.4618C13.6628 25.8178 13.6605 27.1738 13.659 28.5298C13.528 28.5858 13.389 28.5728 13.252 28.5748C12.877 28.5748 12.502 28.5768 12.128 28.5748C12.045 28.5748 11.958 28.5808 11.888 28.5168V28.5278L11.899 28.5248C11.833 28.4738 11.796 28.3958 11.741 28.3348C11.6 28.1728 11.467 28.1368 11.283 28.2228C10.237 28.7158 9.14798 28.8128 8.02698 28.7138C7.35657 28.6627 6.69794 28.5092 6.07398 28.2588C4.95298 27.7938 4.07698 27.0008 3.48698 25.8478C3.02998 24.9578 2.79698 23.9928 2.68998 22.9818C2.62365 22.3953 2.59992 21.8047 2.61898 21.2148C2.68298 19.7148 2.95598 18.2768 3.74498 17.0078C4.40398 15.9478 5.29598 15.2248 6.39798 14.8018C7.10574 14.5339 7.85349 14.3868 8.60998 14.3668C9.37998 14.3418 10.142 14.3838 10.901 14.5078C10.9141 14.5103 10.9265 14.5156 10.9374 14.5234C10.9483 14.5312 10.9573 14.5412 10.964 14.5528L10.97 14.5568ZM20.844 16.6698C20.448 16.6698 20.052 16.6698 19.655 16.6768C19.605 16.6768 19.539 16.6338 19.499 16.7128C19.583 16.8338 19.517 16.9658 19.517 17.0908C19.522 18.6638 19.519 20.2358 19.522 21.8108C19.522 22.5658 19.494 23.3258 19.545 24.0808C19.586 24.6758 19.705 25.2508 20.111 25.6978C20.372 25.9868 20.701 26.1278 21.056 26.1908C21.524 26.2738 21.994 26.2698 22.461 26.1578C23.125 25.9988 23.528 25.5428 23.719 24.8438C23.829 24.4418 23.86 24.0238 23.86 23.6078C23.863 21.4368 23.86 19.2638 23.865 17.0918C23.865 16.9678 23.799 16.8358 23.883 16.7148C23.843 16.6348 23.778 16.6788 23.725 16.6788C23.385 16.6748 23.045 16.6768 22.703 16.6788C22.623 16.6788 22.568 16.6788 22.57 16.5588C22.575 15.9318 22.571 15.3068 22.571 14.6808C22.571 14.6358 22.576 14.5938 22.619 14.5728C22.6253 14.57 22.6321 14.5686 22.639 14.5686C22.6459 14.5686 22.6527 14.57 22.659 14.5728C22.724 14.5778 22.789 14.5848 22.854 14.5848H27.382C27.452 14.5848 27.529 14.5508 27.582 14.6308C27.629 14.7168 27.604 14.8128 27.604 14.9048C27.608 15.4078 27.606 15.9118 27.604 16.4168C27.604 16.4868 27.626 16.5618 27.581 16.6268C27.473 16.7238 27.345 16.6538 27.228 16.6718C27.121 16.6898 27.008 16.6368 26.906 16.7058C26.791 16.8268 26.644 16.9158 26.571 17.0798C26.5315 17.1551 26.5135 17.2399 26.519 17.3248V23.8058C26.462 24.4578 26.388 25.1038 26.181 25.7248C25.801 26.8568 25.122 27.6798 24.111 28.1668C23.381 28.5168 22.614 28.6688 21.821 28.7098C21.4089 28.7344 20.9956 28.731 20.584 28.6998C19.414 28.6018 18.308 28.2878 17.394 27.4178C16.736 26.7918 16.358 25.9788 16.15 25.0638C16.0244 24.4809 15.964 23.8859 15.97 23.2898C15.965 21.3568 15.969 19.4258 15.97 17.4928C15.97 17.2328 15.946 16.9878 15.73 16.8228C15.678 16.7828 15.607 16.7708 15.57 16.7038C15.413 16.6428 15.25 16.6918 15.09 16.6748C15.022 16.6678 14.943 16.7078 14.889 16.6278C14.843 16.5418 14.867 16.4458 14.867 16.3538C14.864 15.8508 14.866 15.3468 14.867 14.8418C14.867 14.7718 14.847 14.6968 14.89 14.6318C14.927 14.5718 14.98 14.5848 15.033 14.5848H20.804C20.818 14.5848 20.831 14.5888 20.844 14.5908C20.91 15.2838 20.91 15.9748 20.844 16.6678V16.6698ZM119.761 14.5588C119.827 14.6108 119.901 14.5858 119.972 14.5878H121.803C121.903 14.5878 121.956 14.5928 121.954 14.7318C121.947 15.9838 121.947 17.2368 121.946 18.4918C121.867 18.5368 121.781 18.5348 121.696 18.5348H119.942C119.845 18.5348 119.746 18.5398 119.661 18.4788V18.4908L119.674 18.4898C119.544 18.1578 119.541 17.7948 119.462 17.4498C119.434 17.3174 119.411 17.184 119.393 17.0498C119.374 16.9028 119.311 16.8308 119.189 16.7998C118.716 16.6828 118.243 16.6038 117.751 16.6608C117.409 16.7028 117.082 16.7658 116.781 16.9678C116.116 17.4158 116.099 18.6978 116.712 19.1698C117.094 19.4638 117.519 19.6118 117.953 19.7478C118.772 20.0038 119.602 20.2148 120.379 20.6098C121.093 20.9748 121.706 21.4638 122.049 22.2728C122.225 22.6858 122.304 23.1278 122.35 23.5828C122.427 24.3228 122.37 25.0468 122.192 25.7608C121.92 26.8618 121.31 27.6548 120.376 28.1528C119.743 28.483 119.046 28.6743 118.333 28.7138C118.247 28.7198 118.165 28.7518 118.08 28.7578C117.666 28.7578 117.253 28.7608 116.839 28.7578C116.732 28.7298 116.62 28.7428 116.512 28.7178C116.232 28.6955 115.953 28.6598 115.677 28.6108C115.593 28.5959 115.509 28.5882 115.424 28.5878H113.402C113.303 28.5878 113.205 28.5908 113.113 28.5478L113.068 28.4988C113.041 28.3801 113.028 28.2585 113.032 28.1368V24.6168C113.032 24.4938 113.032 24.3738 113.073 24.2568H115.397C115.524 24.6078 115.524 24.9848 115.593 25.3498C115.632 25.5598 115.66 25.7738 115.683 25.9868C115.698 26.1128 115.756 26.2138 115.886 26.2448C116.597 26.4148 117.316 26.4598 118.027 26.2808C118.654 26.1238 119.015 25.5738 119.038 24.8968C119.068 24.0168 118.604 23.6858 118.082 23.4398C117.575 23.1998 117.034 23.0778 116.505 22.9128C115.828 22.7038 115.158 22.4728 114.574 22.0228C113.788 21.4188 113.354 20.5778 113.228 19.5398C113.139 18.8138 113.141 18.0928 113.308 17.3778C113.579 16.2208 114.216 15.3998 115.2 14.9018C115.889 14.5528 116.615 14.4068 117.372 14.3758C117.805 14.3578 118.238 14.3748 118.67 14.3928C119.036 14.4088 119.413 14.4068 119.765 14.5658L119.761 14.5588ZM47.434 19.4028C47.502 19.4548 47.477 19.5328 47.477 19.6008V24.0858C47.477 24.1558 47.502 24.2328 47.434 24.2858C47.347 24.3368 47.254 24.3088 47.164 24.3088C46.711 24.3118 46.259 24.3118 45.805 24.3088C45.745 24.3088 45.674 24.3408 45.621 24.2758L45.587 24.1478C45.493 23.8458 45.507 23.5268 45.463 23.2168C45.431 22.9688 45.426 22.9498 45.2 22.9468C44.826 22.9468 44.453 22.9508 44.078 22.9458C43.935 22.9438 43.879 23.0038 43.881 23.1618C43.884 24.1858 43.884 25.2088 43.881 26.2318C43.881 26.4018 43.938 26.4618 44.089 26.4578C44.405 26.4508 44.719 26.4548 45.034 26.4558C45.124 26.4558 45.218 26.4468 45.301 26.5048L45.296 26.4998C45.332 26.5408 45.327 26.5948 45.327 26.6418C45.34 27.2378 45.358 27.8328 45.319 28.4268C45.319 28.4488 45.31 28.4688 45.304 28.4888L45.26 28.5368C45.1528 28.5674 45.0414 28.5809 44.93 28.5768H39.594C39.482 28.5768 39.372 28.5768 39.265 28.5358L39.234 28.4898C39.194 28.4498 39.208 28.3968 39.208 28.3478V26.6878C39.208 26.6378 39.196 26.5858 39.231 26.5428L39.267 26.4978C39.433 26.4288 39.604 26.4638 39.773 26.4578C40.095 26.4508 40.33 26.1978 40.33 25.8448C40.33 23.0068 40.33 20.1678 40.334 17.3308C40.334 17.0148 40.153 16.8578 39.946 16.7108C39.776 16.6378 39.6 16.6958 39.43 16.6778C39.362 16.6698 39.285 16.7098 39.23 16.6308C39.185 16.5438 39.21 16.4478 39.21 16.3558C39.206 15.8528 39.208 15.3488 39.21 14.8438C39.21 14.7738 39.188 14.6988 39.232 14.6338C39.273 14.5678 39.337 14.5878 39.395 14.5878H49.484C49.51 14.5878 49.536 14.5908 49.563 14.5948C49.606 14.7098 49.603 14.8328 49.603 14.9548V18.5198C49.603 18.6428 49.606 18.7638 49.563 18.8808C48.917 18.8828 48.273 18.8808 47.627 18.8918C47.508 18.8938 47.511 18.8088 47.478 18.7408C47.382 18.4408 47.373 18.1228 47.316 17.8148C47.27 17.5688 47.243 17.3178 47.197 17.0708C47.173 16.9408 47.109 16.8888 46.992 16.8888H44.055C43.943 16.8888 43.882 16.9318 43.882 17.0638C43.886 18.2388 43.874 19.4158 43.889 20.5898C43.889 20.6048 43.897 20.6178 43.902 20.6298C43.94 20.6798 43.994 20.6788 44.045 20.6798C44.455 20.6828 44.868 20.6838 45.279 20.6798C45.319 20.6798 45.359 20.6768 45.389 20.6478C45.501 20.3358 45.472 19.9978 45.536 19.6778C45.546 19.6278 45.537 19.5758 45.583 19.5438L45.618 19.4158C45.643 19.3658 45.687 19.3808 45.723 19.3808H47.339C47.372 19.3808 47.405 19.3808 47.431 19.4068L47.434 19.4028ZM74.811 28.4878L74.767 28.5368C74.6597 28.5669 74.5484 28.5804 74.437 28.5768H69.217C69.107 28.5768 68.996 28.5798 68.89 28.5268L68.895 28.5328C68.8615 28.4385 68.8466 28.3387 68.851 28.2388V26.7488C68.851 26.6618 68.848 26.5748 68.895 26.4988L68.892 26.5048C69.066 26.4068 69.254 26.4648 69.432 26.4588C69.78 26.4488 69.959 26.3018 70.049 25.9248C70.061 25.8248 70.057 25.7228 70.057 25.6218V17.1608C70.057 17.0538 70.082 16.9438 70.023 16.8448C69.967 16.7948 69.9 16.7998 69.836 16.7998C69.487 16.7998 69.139 16.8068 68.792 16.7958C68.642 16.7928 68.583 16.8508 68.562 17.0108C68.527 17.2668 68.524 17.5248 68.504 17.7808C68.461 18.3028 68.401 18.8208 68.374 19.3448C68.374 19.3625 68.3703 19.3801 68.363 19.3962C68.3558 19.4124 68.3452 19.4269 68.332 19.4388L68.302 19.5268C68.2306 19.5615 68.1511 19.5763 68.072 19.5698H66.442C66.3629 19.5763 66.2834 19.5615 66.212 19.5268L66.205 14.7028C66.205 14.6528 66.2 14.5998 66.252 14.5728C66.2583 14.57 66.2651 14.5686 66.272 14.5686C66.2789 14.5686 66.2857 14.57 66.292 14.5728C66.377 14.5778 66.462 14.5868 66.546 14.5868H77.326C77.415 14.5868 77.502 14.5548 77.502 14.7268C77.494 16.3268 77.494 17.9278 77.492 19.5268C77.4205 19.5614 77.3411 19.5763 77.262 19.5698H75.629C75.551 19.5698 75.472 19.5718 75.403 19.5218L75.408 19.5248C75.302 19.2248 75.321 18.9058 75.286 18.5948C75.232 18.0918 75.194 17.5848 75.14 17.0798C75.118 16.8918 75.017 16.7978 74.839 16.7978C74.497 16.7978 74.157 16.8038 73.815 16.7958C73.667 16.7928 73.625 16.8558 73.625 17.0108C73.628 19.9658 73.625 22.9178 73.628 25.8728C73.628 26.2018 73.866 26.4448 74.168 26.4558C74.382 26.4628 74.601 26.4178 74.809 26.5028L74.805 26.4968C74.841 26.5388 74.835 26.5928 74.835 26.6398C74.849 27.2358 74.867 27.8308 74.827 28.4248C74.827 28.4468 74.819 28.4668 74.813 28.4858L74.811 28.4878ZM36.315 23.7848L36.347 23.6418C36.418 23.6057 36.4976 23.5901 36.577 23.5968H38.289C38.367 23.5968 38.446 23.5958 38.515 23.6468L38.51 23.6408C38.563 23.7308 38.555 23.8338 38.555 23.9348V28.1958C38.555 28.3118 38.555 28.4258 38.51 28.5338L38.515 28.5278C38.397 28.5664 38.273 28.583 38.149 28.5768H28.629C28.517 28.5768 28.405 28.5788 28.299 28.5318V26.4998C28.458 26.4238 28.625 26.4438 28.785 26.4598C29.082 26.4898 29.38 26.1978 29.403 25.8168C29.406 25.7518 29.403 25.6868 29.403 25.6218C29.403 22.9688 29.398 20.3158 29.409 17.6628C29.411 17.2458 29.334 16.9128 28.982 16.7048C28.798 16.6398 28.607 16.6828 28.422 16.6778C28.338 16.6738 28.292 16.6668 28.292 16.5528C28.297 15.9288 28.293 15.3038 28.293 14.6798C28.293 14.6338 28.298 14.5928 28.341 14.5708C28.3473 14.568 28.3541 14.5666 28.361 14.5666C28.3679 14.5666 28.3747 14.568 28.381 14.5708C28.459 14.5768 28.536 14.5838 28.616 14.5858H34.307C34.37 14.5858 34.441 14.5588 34.488 14.6328C34.534 14.7188 34.51 14.8148 34.51 14.9068C34.513 15.4108 34.511 15.9138 34.51 16.4198C34.51 16.4898 34.531 16.5638 34.487 16.6288C34.439 16.7028 34.368 16.6758 34.306 16.6758C33.874 16.6758 33.443 16.6738 33.011 16.6758C32.968 16.6758 32.904 16.6288 32.879 16.7138C32.929 16.7748 32.912 16.8488 32.912 16.9188C32.912 19.9368 32.912 22.9548 32.914 25.9728C32.914 26.0838 32.863 26.2308 33.025 26.2758C33.959 26.2848 34.891 26.2758 35.825 26.2808C35.961 26.2808 36.015 26.2358 36.035 26.0748C36.121 25.3568 36.189 24.6388 36.267 23.9198C36.272 23.8698 36.275 23.8198 36.313 23.7828L36.315 23.7848ZM84.268 28.4888C84.258 28.5048 84.246 28.5188 84.236 28.5358C84.1302 28.5697 84.0189 28.5837 83.908 28.5768H78.65C78.538 28.5768 78.429 28.5718 78.32 28.5368L78.275 28.4888C78.203 28.0608 78.249 27.6288 78.243 27.1998C78.239 26.9648 78.206 26.7268 78.283 26.4978L78.279 26.5028C78.481 26.4098 78.698 26.4368 78.9 26.4628C79.21 26.5048 79.502 26.1148 79.502 25.8278V25.6328C79.502 22.9658 79.495 20.2968 79.508 17.6288C79.51 17.2318 79.423 16.9248 79.114 16.7098C78.839 16.6268 78.556 16.7048 78.28 16.6698C78.2504 16.5743 78.2369 16.4746 78.24 16.3748V14.8448C78.24 14.7588 78.25 14.6728 78.279 14.5908C79.507 14.5908 80.733 14.5878 81.961 14.5858H84.087C84.15 14.5858 84.221 14.5588 84.268 14.6328C84.314 14.7198 84.29 14.8148 84.29 14.9068C84.293 15.4108 84.291 15.9138 84.29 16.4198C84.29 16.4898 84.311 16.5638 84.267 16.6298C84.158 16.7268 84.032 16.6578 83.913 16.6738C83.743 16.6998 83.566 16.6308 83.399 16.7118C83.379 16.7518 83.344 16.7728 83.312 16.7968C83.2259 16.858 83.1564 16.9397 83.1098 17.0345C83.0632 17.1293 83.0409 17.2342 83.045 17.3398C83.047 20.1678 83.045 22.9968 83.047 25.8248C83.047 26.2148 83.269 26.4488 83.623 26.4578C83.825 26.4618 84.03 26.4218 84.229 26.4958L84.265 26.5408C84.311 26.6588 84.285 26.7808 84.286 26.9018C84.29 27.3618 84.29 27.8218 84.286 28.2828C84.286 28.3518 84.311 28.4268 84.262 28.4908L84.268 28.4888Z" fill="black"/>
<path d="M10.97 14.5569C10.2766 14.4427 9.57467 14.3885 8.87198 14.3949C7.57998 14.4159 6.34398 14.6829 5.23898 15.4669C4.00498 16.3439 3.26898 17.6169 2.92898 19.1649C2.50198 21.1189 2.52898 23.0669 3.16198 24.9669C3.80098 26.8839 5.08198 28.0299 6.87598 28.4799C8.16598 28.8029 9.46298 28.8219 10.747 28.4019C10.91 28.3499 11.067 28.2789 11.224 28.2089C11.521 28.0749 11.668 28.1189 11.847 28.4109C11.868 28.4469 11.885 28.4869 11.903 28.5229C11.843 28.5189 11.807 28.4729 11.776 28.4289C11.608 28.1939 11.415 28.1979 11.18 28.3089C10.629 28.5749 10.047 28.6889 9.44998 28.7539C8.59526 28.8453 7.73108 28.7837 6.89798 28.5719C5.38798 28.1959 4.19398 27.3259 3.42998 25.8119C2.97998 24.9239 2.75398 23.9659 2.65398 22.9639C2.58846 22.3924 2.56473 21.8169 2.58298 21.2419C2.64898 19.7299 2.91698 18.2789 3.71098 16.9949C4.55498 15.6309 5.75698 14.8669 7.19498 14.5049C8.07151 14.2908 8.97987 14.2393 9.87498 14.3529C11.02 14.4879 12.162 14.4989 13.308 14.5049C13.333 14.5049 13.358 14.5119 13.382 14.5569H10.966H10.97ZM119.761 14.5589C119.075 14.4398 118.379 14.3852 117.683 14.3959C116.773 14.4059 115.88 14.5389 115.057 15.0099C114.029 15.5979 113.444 16.5369 113.266 17.7839C113.143 18.6499 113.174 19.5089 113.437 20.3409C113.746 21.3179 114.389 21.9529 115.226 22.3789C115.9 22.7219 116.626 22.8879 117.335 23.1149C117.673 23.2249 118.014 23.3319 118.327 23.5119C118.931 23.8609 119.138 24.3099 119.064 25.0739C119.005 25.6839 118.635 26.1579 118.035 26.3099C117.282 26.5009 116.526 26.4559 115.776 26.2429C115.681 26.2159 115.673 26.1579 115.661 26.0769C115.574 25.4669 115.484 24.8549 115.393 24.2449C115.485 24.2829 115.492 24.3819 115.504 24.4599C115.578 24.9329 115.65 25.4059 115.707 25.8819C115.73 26.0749 115.803 26.1759 115.98 26.2139C116.656 26.3589 117.333 26.3929 118.007 26.2319C118.623 26.0839 118.962 25.5649 118.993 24.8839C119.029 24.0829 118.638 23.7379 118.074 23.4739C117.476 23.1939 116.835 23.0629 116.215 22.8589C115.398 22.5899 114.618 22.2469 114.016 21.5419C113.538 20.9799 113.293 20.3049 113.186 19.5559C113.123 19.0771 113.113 18.5929 113.156 18.1119C113.262 16.7719 113.793 15.6969 114.892 15.0189C115.687 14.5279 116.551 14.3349 117.455 14.3289C117.803 14.3269 118.151 14.3259 118.5 14.3289C118.926 14.3349 119.346 14.3959 119.764 14.4769C119.948 14.5129 120.13 14.4969 120.313 14.4989C120.831 14.5039 121.348 14.4989 121.864 14.4989V14.5509H119.761V14.5589ZM26.492 17.2329C26.535 16.9639 26.676 16.7909 26.912 16.7079H27.46V16.7569C27.366 16.7569 27.27 16.7699 27.176 16.7549C26.846 16.7029 26.556 17.0669 26.559 17.4209C26.574 19.5129 26.587 21.6049 26.558 23.6969C26.541 24.7899 26.329 25.8499 25.742 26.7759C25.169 27.6799 24.362 28.1979 23.41 28.4939C22.462 28.7899 21.49 28.7899 20.524 28.7379C19.7235 28.7015 18.9422 28.4808 18.241 28.0929C17.097 27.4509 16.41 26.4089 16.119 25.0469C16.0112 24.5565 15.9558 24.056 15.954 23.5539C15.959 21.5489 15.956 19.5439 15.954 17.5379C15.954 17.0709 15.788 16.8059 15.458 16.7619C15.31 16.7419 15.158 16.7589 15.009 16.7589V16.7029H15.576C15.854 16.7789 16.01 17.0109 16.01 17.3529C16.01 19.3289 16.007 21.3029 16.012 23.2799C16.012 23.9579 16.072 24.6319 16.247 25.2849C16.657 26.8149 17.557 27.8389 18.937 28.3079C20.519 28.8459 22.12 28.8509 23.699 28.3009C25.156 27.7909 26.002 26.6509 26.333 25.0269C26.412 24.6389 26.433 24.2449 26.49 23.8549C26.52 23.8029 26.509 23.7429 26.509 23.6849V17.3799C26.509 17.3289 26.515 17.2779 26.495 17.2299L26.492 17.2329Z" fill="black"/>
<path d="M116.539 28.6748C116.626 28.7388 116.727 28.6618 116.815 28.7028C117.021 28.7628 117.23 28.7268 117.437 28.7268C117.664 28.7268 117.892 28.7588 118.119 28.7048C118.724 28.6328 119.327 28.5518 119.907 28.3228C121.377 27.7408 122.141 26.5748 122.302 24.8948C122.364 24.2856 122.345 23.6707 122.243 23.0668C122.051 21.9708 121.444 21.2368 120.556 20.7468C119.869 20.3688 119.135 20.1408 118.397 19.9228C117.918 19.7798 117.433 19.6558 116.988 19.4048C116.344 19.0418 116.092 18.4538 116.268 17.6848C116.372 17.2318 116.638 16.9248 117.036 16.7768C117.788 16.4948 118.546 16.5668 119.301 16.7898C119.383 16.8128 119.403 16.8668 119.414 16.9398L119.671 18.4878C119.547 18.4098 119.567 18.2618 119.542 18.1428C119.469 17.7785 119.404 17.4128 119.347 17.0458C119.329 16.9298 119.279 16.8658 119.177 16.8378C118.508 16.6518 117.836 16.5978 117.164 16.8128C116.687 16.9668 116.383 17.3198 116.312 17.8618C116.24 18.4218 116.387 18.9028 116.847 19.2218C117.189 19.4608 117.571 19.5848 117.958 19.7018C118.84 19.9728 119.738 20.1988 120.561 20.6568C121.212 21.0178 121.766 21.5018 122.077 22.2528C122.254 22.6808 122.333 23.1358 122.384 23.6048C122.459 24.3408 122.403 25.0844 122.218 25.8008C121.975 26.7758 121.447 27.5228 120.652 28.0318C119.924 28.4978 119.125 28.6838 118.293 28.7618C117.853 28.8018 117.414 28.7988 116.976 28.7878C116.753 28.7828 116.521 28.7878 116.303 28.7108C116.377 28.6608 116.464 28.7118 116.539 28.6748ZM52.993 19.0078C53.131 18.5878 53.366 18.2298 53.613 17.8878C54.2697 16.9562 55.1922 16.2445 56.26 15.8458C56.9763 15.5759 57.7455 15.4763 58.507 15.5548C59.657 15.6668 60.689 16.1198 61.584 16.9348C62.704 17.9538 63.391 19.2478 63.594 20.8178C63.808 22.4638 63.473 23.9888 62.58 25.3498C62.1156 26.0625 61.5009 26.6649 60.779 27.1148C60.751 27.1328 60.719 27.1368 60.687 27.1468C60.641 27.1598 60.636 27.1288 60.639 27.0918C60.684 27.0048 60.762 26.9648 60.835 26.9168C62.281 25.9378 63.187 24.5358 63.45 22.6928C63.714 20.8358 63.289 19.1628 62.153 17.7278C61.31 16.6628 60.253 15.9938 58.993 15.7698C57.171 15.4448 55.56 15.9568 54.211 17.3778C53.8023 17.808 53.4575 18.2946 53.187 18.8228C53.141 18.9128 53.111 19.0288 52.999 19.0578C52.976 19.0438 52.975 19.0258 52.993 19.0038V19.0078ZM9.28598 23.7238C9.59498 23.7198 9.90198 23.7158 10.211 23.7088C10.291 23.7068 10.33 23.7258 10.33 23.8258C10.326 24.5628 10.326 25.2988 10.33 26.0338C10.33 26.1098 10.312 26.1618 10.242 26.1768C9.30698 26.3818 8.37498 26.5068 7.54798 25.8068C7.01798 25.3548 6.74598 24.7128 6.59498 24.0138C6.24298 22.3988 6.19498 20.7778 6.60798 19.1678C6.83298 18.2928 7.27398 17.5758 8.04998 17.1668C8.61798 16.8668 9.22498 16.8418 9.83998 16.9008C10.147 16.9318 10.451 16.9858 10.745 17.0908C10.813 17.1138 10.861 17.1318 10.874 17.2228C10.974 17.8598 11.081 18.4968 11.186 19.1328C11.107 19.1068 11.107 19.0288 11.094 18.9588C11.005 18.4438 10.914 17.9318 10.828 17.4178C10.803 17.2698 10.745 17.1648 10.602 17.1268C9.91198 16.9518 9.21798 16.8768 8.52298 17.0688C7.66998 17.3018 7.13598 17.9288 6.80698 18.7908C6.58498 19.3718 6.49498 19.9858 6.43898 20.6118C6.39498 21.1028 6.39098 21.5918 6.41398 22.0788C6.45998 23.0578 6.55898 24.0298 6.99098 24.9148C7.40698 25.7648 8.04698 26.2268 8.94098 26.2358C9.30198 26.2398 9.66098 26.2288 10.016 26.1488C10.196 26.1088 10.272 25.9958 10.272 25.8068C10.272 25.2288 10.275 24.6508 10.272 24.0738C10.27 23.8408 10.202 23.7738 9.98198 23.7688C9.81198 23.7648 9.64098 23.7688 9.46998 23.7668C9.40698 23.7668 9.33698 23.7898 9.28698 23.7198L9.28598 23.7238ZM23.885 16.7138C23.89 16.7718 23.897 16.8268 23.897 16.8848V23.6988C23.897 24.1318 23.847 24.5588 23.721 24.9728C23.527 25.6098 23.132 26.0208 22.539 26.1798C21.9778 26.3342 21.3852 26.3325 20.825 26.1748C20.108 25.9728 19.743 25.4168 19.584 24.6618C19.5183 24.3376 19.4861 24.0075 19.488 23.6768V16.8418C19.488 16.7988 19.497 16.7568 19.5 16.7138H20.759V16.7588H19.809C19.593 16.7588 19.544 16.8088 19.544 17.0528C19.544 19.2388 19.533 21.4258 19.551 23.6118C19.556 24.1238 19.601 24.6418 19.802 25.1258C20.054 25.7328 20.494 26.0498 21.076 26.1498C21.531 26.2268 21.986 26.2228 22.442 26.1168C23.092 25.9638 23.492 25.5268 23.678 24.8448C23.803 24.3878 23.839 23.9128 23.839 23.4388C23.842 21.3388 23.841 19.2388 23.841 17.1388C23.841 16.7808 23.821 16.7588 23.496 16.7588C23.221 16.7588 22.945 16.7588 22.669 16.7138H23.885ZM94.966 14.5948C94.336 17.1518 93.706 19.7098 93.074 22.2668C93.064 22.3068 93.046 22.3468 93.032 22.3838C92.981 22.4688 92.93 22.4798 92.879 22.3838C92.632 21.3878 92.384 20.3918 92.139 19.3938C91.753 17.8218 91.37 16.2498 90.985 14.6778C90.979 14.6508 90.979 14.6198 90.975 14.5928C91.061 14.6308 91.077 14.7158 91.099 14.7998C91.654 17.0868 92.209 19.3758 92.769 21.6618C92.816 21.8538 92.849 22.0538 92.945 22.2488C93.056 22.1518 93.066 22.0068 93.095 21.8858C93.513 20.1968 93.925 18.5058 94.338 16.8148C94.498 16.1628 94.659 15.5128 94.827 14.8638C94.851 14.7658 94.853 14.6418 94.967 14.5938L94.966 14.5948ZM93.572 28.5298L96.248 17.9638C96.323 17.9038 96.382 17.9068 96.4 18.0218C96.409 18.0708 96.404 18.1228 96.404 18.1738C96.404 20.8338 96.404 23.4938 96.4 26.1538C96.4 26.2238 96.466 26.3338 96.343 26.3698V18.1968C96.226 18.2398 96.225 18.3368 96.207 18.4098C95.789 20.0628 95.377 21.7178 94.959 23.3718C94.539 25.0318 94.119 26.6918 93.697 28.3518C93.677 28.4248 93.657 28.5078 93.572 28.5298ZM88.735 17.9598C88.922 18.6998 89.115 19.4358 89.298 20.1738C89.994 22.9588 90.689 25.7448 91.382 28.5298C91.212 28.4268 91.23 28.2198 91.189 28.0568C90.579 25.6438 89.979 23.2288 89.377 20.8128C89.187 20.0428 88.997 19.2748 88.805 18.5078C88.782 18.4158 88.771 18.3128 88.652 18.2028V26.3658C88.539 26.3368 88.595 26.2358 88.595 26.1728C88.59 25.5728 88.591 24.9758 88.591 24.3768V18.1898C88.591 18.1318 88.585 18.0748 88.595 18.0168C88.61 17.9158 88.664 17.9118 88.733 17.9588L88.735 17.9598Z" fill="black"/>
<path d="M52.993 19.0069L53 19.0649C53.048 19.1859 52.987 19.2929 52.95 19.3949C52.6268 20.2516 52.4872 21.1667 52.54 22.0809C52.627 23.4439 53.068 24.6549 53.89 25.6939C54.322 26.2399 54.823 26.6849 55.397 27.0299C56.0977 27.4537 56.8904 27.7019 57.7077 27.7534C58.525 27.805 59.3426 27.6583 60.091 27.3259C60.151 27.2989 60.214 27.2719 60.281 27.2919C60.313 27.3059 60.339 27.3239 60.331 27.3689C59.428 27.8309 58.471 27.9719 57.494 27.8799C56.399 27.7769 55.41 27.3349 54.548 26.5799C53.636 25.7829 52.998 24.7719 52.657 23.5469C52.4327 22.7597 52.3567 21.9378 52.433 21.1229C52.4956 20.4978 52.636 19.8831 52.851 19.2929C52.887 19.1929 52.92 19.0899 52.993 19.0109V19.0069ZM79.113 16.7099C79.2375 16.7533 79.3451 16.835 79.4204 16.9433C79.4957 17.0516 79.5347 17.181 79.532 17.3129V25.8549C79.532 26.2159 79.262 26.4979 78.929 26.4999C78.712 26.4999 78.495 26.5029 78.279 26.5049C78.347 26.3999 78.45 26.4129 78.547 26.4129H78.863C79.226 26.4129 79.46 26.1599 79.461 25.7559C79.465 24.8259 79.461 23.8969 79.461 22.9669V17.4969C79.461 16.9839 79.257 16.7589 78.795 16.7589C78.653 16.7589 78.509 16.7589 78.365 16.7119H79.113V16.7099ZM101.708 28.5349C103.158 28.5349 104.609 28.5319 106.059 28.5299H112.28C112.18 28.6099 112.065 28.6199 111.947 28.6199H102.004C101.899 28.6199 101.796 28.6119 101.708 28.5349ZM36.314 23.7849C36.2312 24.5993 36.1502 25.414 36.071 26.2289C36.061 26.3259 36.021 26.3459 35.946 26.3439L33.033 26.3299C32.923 26.2919 32.893 26.2099 32.893 26.0849C32.895 23.0419 32.895 19.9999 32.893 16.9569C32.893 16.8599 32.893 16.7669 32.989 16.7189H34.365V16.7569H33.262C32.968 16.7569 32.952 16.7729 32.952 17.1019V25.9269C32.952 26.1359 33.047 26.2399 33.234 26.2399C34.069 26.2399 34.902 26.2359 35.737 26.2429C35.9 26.2429 35.989 26.2159 36.005 26.0089C36.04 25.5739 36.099 25.1419 36.148 24.7089C36.183 24.4039 36.218 24.0989 36.255 23.7939C36.262 23.7399 36.278 23.6749 36.312 23.7849H36.314ZM84.234 26.4959L83.564 26.4989C83.288 26.4989 83.036 26.2449 83.01 25.9419C83.007 25.9059 83.008 25.8699 83.008 25.8329V17.3329C83.008 17.0309 83.15 16.8129 83.403 16.7119H84.147V16.7569H83.636C83.302 16.7589 83.09 16.9839 83.09 17.3439V25.8189C83.09 26.1839 83.3 26.3989 83.626 26.4149C83.828 26.4249 84.046 26.3329 84.234 26.4959ZM28.983 16.7059C29.278 16.7999 29.437 17.0399 29.437 17.3959V25.7599C29.437 26.2219 29.187 26.4999 28.773 26.4999H28.301C28.385 26.3859 28.504 26.4129 28.611 26.4129C29.201 26.4109 29.366 26.2269 29.366 25.5729V17.5199C29.366 16.9749 29.169 16.7569 28.676 16.7569C28.579 16.7569 28.482 16.7569 28.385 16.7069H28.985L28.983 16.7059ZM39.946 16.7079C40.0753 16.7489 40.1874 16.8316 40.2648 16.943C40.3422 17.0545 40.3806 17.1883 40.374 17.3239V25.8479C40.374 26.2199 40.118 26.4979 39.779 26.4989C39.609 26.4989 39.437 26.4979 39.267 26.4959C39.413 26.3459 39.592 26.4259 39.757 26.4149C40.003 26.3999 40.167 26.2869 40.263 26.0449C40.293 25.9669 40.293 25.8909 40.293 25.8119V17.3619C40.293 16.9859 40.088 16.7619 39.742 16.7569C39.612 16.7549 39.482 16.7569 39.352 16.7079H39.946ZM28.3 28.5339H38.438C38.464 28.5339 38.49 28.5319 38.517 28.5299C38.417 28.6099 38.301 28.6199 38.183 28.6199H28.596C28.49 28.6199 28.387 28.6149 28.301 28.5339H28.3ZM85.38 26.4919C85.236 26.4959 85.09 26.5019 84.946 26.5049C85.094 26.3369 85.281 26.4239 85.451 26.4179C85.5521 26.4214 85.652 26.3955 85.7386 26.3433C85.8253 26.2911 85.8949 26.2149 85.939 26.1239C85.9875 26.0368 86.0123 25.9385 86.011 25.8389V17.3419C86.011 17.0189 85.793 16.7729 85.494 16.7589C85.351 16.7529 85.207 16.7589 85.064 16.7589V16.7059H85.63C85.977 16.8239 86.09 17.1059 86.09 17.4769V25.6979C86.09 26.0789 85.967 26.3679 85.615 26.4919C85.5384 26.4684 85.4566 26.4684 85.38 26.4919ZM110.118 24.2149C110.035 24.8919 109.953 25.5699 109.873 26.2469C109.856 26.3919 109.758 26.3389 109.692 26.3389C108.758 26.3429 107.826 26.3409 106.893 26.3409C106.728 26.3409 106.564 26.3359 106.4 26.3429C106.306 26.3459 106.276 26.3189 106.276 26.2109C106.28 25.0139 106.28 23.8159 106.276 22.6189C106.276 22.5289 106.296 22.4929 106.385 22.4949C106.871 22.4979 107.358 22.4979 107.843 22.4949C107.927 22.4949 107.963 22.5289 107.971 22.6149C108.002 22.9369 108.033 23.2579 108.066 23.5809C108.051 23.5959 108.04 23.7019 108.02 23.5919C107.971 23.3252 107.934 23.0566 107.907 22.7869C107.892 22.6159 107.805 22.5619 107.675 22.5619C107.314 22.5583 106.953 22.5583 106.592 22.5619C106.436 22.5619 106.359 22.6389 106.36 22.8289C106.365 23.8889 106.367 24.9489 106.36 26.0089C106.36 26.2109 106.444 26.2809 106.608 26.2809H109.546C109.725 26.2809 109.809 26.1809 109.832 25.9999C109.899 25.4669 109.965 24.9369 110.034 24.4039C110.042 24.3359 110.067 24.2689 110.085 24.2019C110.085 24.1999 110.098 24.1999 110.103 24.2019C110.11 24.2039 110.114 24.2089 110.119 24.2149H110.118ZM45.585 19.5399L45.455 20.6969C45.12 20.7459 44.781 20.7109 44.445 20.7149C44.245 20.7169 44.045 20.7419 43.846 20.6969C43.843 19.4499 43.841 18.2029 43.835 16.9549C43.835 16.8509 43.875 16.8419 43.953 16.8419C44.997 16.8439 46.042 16.8439 47.086 16.8419C47.161 16.8419 47.211 16.8559 47.224 16.9479C47.308 17.5459 47.394 18.1409 47.477 18.7379C47.429 18.8599 47.426 18.7529 47.421 18.7219C47.371 18.4119 47.322 18.1029 47.275 17.7919C47.243 17.5889 47.217 17.3829 47.185 17.1769C47.16 17.0059 47.079 16.9229 46.903 16.9249C45.978 16.9339 45.053 16.9279 44.127 16.9279C44.05 16.9279 43.966 16.9139 43.923 17.0149C43.892 17.0599 43.903 17.1119 43.903 17.1609V20.3759C43.903 20.4239 43.893 20.4759 43.923 20.5219C43.923 20.5579 43.932 20.5899 43.963 20.6079C44.423 20.6449 44.883 20.6449 45.343 20.6079C45.396 20.5469 45.404 20.4679 45.423 20.3919C45.47 20.3269 45.416 20.2399 45.46 20.1729V20.0449C45.51 19.9649 45.452 19.8649 45.5 19.7849C45.501 19.7129 45.5 19.6409 45.508 19.5709C45.514 19.5239 45.54 19.4889 45.587 19.5379L45.585 19.5399ZM68.327 19.4389C68.351 18.7889 68.427 18.1449 68.483 17.4989C68.501 17.2999 68.521 17.0989 68.529 16.9009C68.532 16.7959 68.552 16.7529 68.66 16.7549C69.13 16.7649 69.602 16.7619 70.072 16.7649C70.107 16.8249 70.09 16.8919 70.09 16.9549V25.8009C70.09 25.8659 70.1 25.9309 70.077 25.9939C69.995 26.3209 69.743 26.5389 69.42 26.5039C69.246 26.4869 69.066 26.5039 68.89 26.5069L68.928 26.4569C69.124 26.3999 69.326 26.4769 69.522 26.4169C69.772 26.4239 69.888 26.2309 69.995 26.0269C70.031 25.9599 70.015 25.8859 70.015 25.8149V17.1019C70.015 17.0319 70.033 16.9569 69.995 16.8899L69.918 16.8469C69.5242 16.8089 69.1278 16.8089 68.734 16.8469C68.54 16.9279 68.588 17.1169 68.577 17.2799C68.522 17.3899 68.59 17.5169 68.539 17.6289V17.7569C68.486 17.8829 68.55 18.0219 68.499 18.1479V18.2329C68.447 18.3429 68.513 18.4699 68.461 18.5819V18.6659C68.407 18.7909 68.473 18.9319 68.421 19.0579V19.1429C68.371 19.2239 68.431 19.3229 68.384 19.4049L68.334 19.4449L68.327 19.4389ZM45.3 26.5049C44.862 26.5049 44.421 26.4959 43.982 26.5049C43.858 26.5069 43.833 26.4669 43.834 26.3369C43.839 25.2499 43.839 24.1628 43.834 23.0759C43.834 22.9359 43.864 22.8959 43.996 22.8989C44.435 22.9079 44.876 22.9079 45.314 22.8989C45.431 22.8969 45.474 22.9279 45.486 23.0579C45.514 23.4219 45.552 23.7869 45.586 24.1499C45.483 24.1429 45.511 24.0449 45.503 23.9849C45.47 23.7239 45.443 23.4599 45.423 23.1969C45.411 23.0429 45.35 22.9869 45.209 22.9889C44.842 22.9959 44.474 22.9949 44.107 22.9889C43.974 22.9869 43.918 23.0389 43.92 23.1889C43.923 24.1989 43.923 25.2059 43.92 26.2149C43.92 26.3659 43.977 26.4169 44.11 26.4149C44.425 26.4089 44.739 26.4149 45.054 26.4149C45.146 26.4149 45.24 26.4109 45.302 26.5069L45.3 26.5049ZM107.946 20.3269C107.912 20.3959 107.853 20.3669 107.805 20.3669C107.345 20.3679 106.885 20.3629 106.424 20.3719C106.296 20.3739 106.276 20.3289 106.276 20.2009C106.281 19.1329 106.281 18.0648 106.276 16.9969C106.276 16.8769 106.303 16.8399 106.416 16.8399C107.488 16.8449 108.559 16.8439 109.63 16.8399C109.72 16.8399 109.749 16.8529 109.769 16.9749C109.819 17.2849 109.874 17.5949 109.919 17.9069C109.927 17.9539 109.955 18.0109 109.874 18.0109C109.822 17.7169 109.763 17.4229 109.718 17.1269C109.697 16.9839 109.633 16.9279 109.508 16.9279C108.51 16.9279 107.512 16.9279 106.513 16.9299C106.464 16.9299 106.413 16.9569 106.364 16.9719C106.334 17.0079 106.342 17.0519 106.342 17.0939V20.0919C106.342 20.1359 106.336 20.1789 106.362 20.2169L106.401 20.2599C106.888 20.2939 107.374 20.2979 107.861 20.2569L107.9 20.1719C108.005 20.1899 107.946 20.2659 107.945 20.3219L107.946 20.3269ZM74.806 26.5049C74.583 26.5049 74.361 26.5009 74.137 26.4989C73.851 26.4979 73.585 26.2119 73.58 25.8989C73.575 25.6239 73.58 25.3519 73.58 25.0769C73.58 22.3679 73.582 19.6589 73.575 16.9499C73.575 16.7799 73.619 16.7519 73.759 16.7549C74.152 16.7659 74.546 16.7699 74.941 16.7549C75.118 16.7479 75.192 16.8019 75.168 16.9989C75.163 17.0329 75.168 17.0689 75.168 17.1049C75.153 17.1209 75.138 17.1209 75.123 17.1069C75.077 17.0419 75.135 16.9539 75.083 16.8909L75.045 16.8489C74.786 16.7949 74.527 16.8289 74.267 16.8269C74.08 16.8249 73.891 16.7969 73.703 16.8469L73.663 16.8909C73.626 16.9569 73.644 17.0309 73.644 17.1009V25.8159C73.644 25.8859 73.626 25.9599 73.664 26.0259C73.807 26.3499 74.044 26.4619 74.362 26.4219C74.51 26.4039 74.675 26.3789 74.806 26.5089V26.5049ZM102.389 16.7079C102.686 16.8089 102.829 17.0239 102.829 17.3799V25.7669C102.829 26.2399 102.593 26.4969 102.163 26.4969L101.71 26.4939C101.809 26.3739 101.942 26.4019 102.062 26.4139C102.547 26.4649 102.774 26.1439 102.774 25.6299V17.5669C102.774 16.9719 102.53 16.7119 102.026 16.7549C101.945 16.766 101.863 16.7487 101.794 16.7059H102.389V16.7079ZM100.959 26.4999H100.426C100.099 26.4999 99.84 26.2229 99.84 25.8619C99.838 23.0049 99.84 20.1499 99.84 17.2919C99.84 17.0119 100.014 16.7839 100.274 16.7049H100.878V16.7589H100.528C100.117 16.7589 99.897 16.9949 99.895 17.4519C99.892 18.0419 99.895 18.6339 99.895 19.2239V25.6649C99.895 25.8259 99.907 25.9889 99.986 26.1219C100.091 26.3019 100.231 26.4249 100.454 26.4199C100.622 26.4149 100.811 26.3399 100.961 26.5009L100.959 26.4989V26.4999ZM39.267 28.5349C41.265 28.5349 43.262 28.5369 45.261 28.5389C45.172 28.6129 45.071 28.6199 44.964 28.6199H39.562C39.456 28.6199 39.354 28.6119 39.267 28.5349ZM78.319 28.5399C79.127 28.5349 79.936 28.5319 80.745 28.5319C81.909 28.5319 83.072 28.5349 84.235 28.5369C84.149 28.6149 84.045 28.6219 83.94 28.6219H78.618C78.511 28.6219 78.409 28.6149 78.32 28.5409L78.319 28.5399ZM68.89 28.5279H74.432C74.543 28.5279 74.655 28.5339 74.767 28.5359C74.678 28.6099 74.575 28.6159 74.469 28.6159H69.183C69.078 28.6159 68.973 28.6129 68.891 28.5259L68.89 28.5279ZM66.288 14.5729H66.249C66.274 14.4849 66.341 14.5059 66.397 14.5059H77.364C77.375 14.5059 77.388 14.5139 77.401 14.5459H66.52C66.442 14.5459 66.362 14.5209 66.29 14.5709V14.5729H66.288ZM95.28 28.5279C97.174 28.5279 99.067 28.5299 100.959 28.5319C100.874 28.6129 100.77 28.6179 100.665 28.6179H95.571C95.466 28.6179 95.362 28.6149 95.278 28.5279H95.28ZM96.342 26.3699C96.409 26.3079 96.383 26.2219 96.383 26.1469C96.383 23.4929 96.385 20.8389 96.383 18.1849C96.383 18.0919 96.451 17.9209 96.248 17.9659C96.265 17.8959 96.261 17.8159 96.308 17.7549C96.363 17.7079 96.394 17.7449 96.418 17.7979C96.419 18.1739 96.424 18.5489 96.424 18.9229C96.424 21.3759 96.422 23.8299 96.429 26.2829C96.429 26.4619 96.394 26.5129 96.229 26.5049C95.915 26.4899 95.597 26.5049 95.282 26.5049C95.349 26.3999 95.452 26.4199 95.548 26.4129C95.813 26.3929 96.082 26.4619 96.344 26.3689L96.342 26.3699ZM88.735 17.9599C88.674 17.9719 88.595 17.9569 88.611 18.0729C88.618 18.1139 88.611 18.1589 88.611 18.2029V26.1239C88.611 26.2069 88.58 26.2989 88.651 26.3699C88.925 26.4649 89.206 26.3909 89.484 26.4129C89.581 26.4199 89.682 26.4029 89.754 26.5009C89.399 26.5009 89.045 26.4979 88.69 26.5009C88.598 26.5009 88.567 26.4779 88.567 26.3709C88.572 23.5409 88.573 20.7109 88.575 17.8809C88.616 17.8579 88.541 17.6469 88.689 17.7969C88.733 17.8419 88.729 17.9029 88.729 17.9629L88.735 17.9599ZM14.534 21.6519C12.772 21.6519 11.01 21.6539 9.25 21.6549C9.332 21.5669 9.435 21.5649 9.542 21.5649H14.242C14.347 21.5649 14.45 21.5709 14.536 21.6519H14.534ZM111.991 14.5399H101.802V14.5199H111.999L111.993 14.5399H111.991ZM49.479 14.5349H39.357V14.5189H49.479V14.5349ZM84.944 28.5279C86.549 28.5279 88.153 28.5299 89.757 28.5319C89.672 28.6129 89.568 28.6179 89.463 28.6179H85.237C85.132 28.6179 85.028 28.6149 84.947 28.5279H84.944Z" fill="black"/>
<path d="M32.991 16.7189C32.9338 16.8005 32.9066 16.8994 32.914 16.9989C32.916 20.0109 32.916 23.0229 32.914 26.0359C32.914 26.1639 32.94 26.2579 33.035 26.3279C32.945 26.3499 32.875 26.3659 32.875 26.2109C32.88 23.0449 32.881 19.8769 32.883 16.7109C32.919 16.7109 32.955 16.7149 32.991 16.7169V16.7189ZM38.512 28.5339V23.6429C38.593 23.7059 38.596 23.7979 38.596 23.8929V28.2359C38.596 28.3439 38.588 28.4509 38.514 28.5359L38.512 28.5339ZM69.994 16.8869C70.061 16.9499 70.034 17.0349 70.034 17.1109V25.7989C70.034 25.8749 70.058 25.9599 69.994 26.0229V16.8869ZM73.664 26.0229C73.598 25.9599 73.624 25.8749 73.624 25.7989V17.1109C73.624 17.0349 73.598 16.9509 73.662 16.8869V26.0229H73.664ZM109.948 23.7279C109.948 22.3719 109.951 21.0149 109.953 19.6589L109.956 19.1829C110.035 19.2589 110.032 19.3599 110.032 19.4609V23.4549C110.032 23.5559 110.037 23.6589 109.948 23.7279ZM13.472 19.1379L13.467 14.5929C13.541 14.6869 13.547 14.7999 13.547 14.9159V18.8109C13.547 18.9279 13.54 19.0409 13.472 19.1379ZM112.275 28.5339V24.1619C112.356 24.2249 112.36 24.3169 112.36 24.4129V28.2359C112.36 28.3439 112.351 28.4509 112.277 28.5359L112.275 28.5339ZM49.56 18.8779V14.5929C49.635 14.6869 49.64 14.7989 49.64 14.9159V18.5579C49.64 18.6739 49.633 18.7879 49.56 18.8809V18.8779ZM113.072 24.2469L113.067 28.4889C112.999 28.3909 112.993 28.2789 112.993 28.1619V24.5699C112.993 24.4549 112.998 24.3409 113.072 24.2469ZM116.539 28.6749C116.467 28.7359 116.381 28.6959 116.302 28.7089C115.306 28.5749 114.304 28.6309 113.304 28.6209C113.229 28.6209 113.161 28.6029 113.11 28.5379C113.909 28.5359 114.71 28.5199 115.509 28.5379C115.854 28.5449 116.196 28.6259 116.539 28.6729V28.6749ZM28.38 14.5729H28.34C28.365 14.4849 28.433 14.5059 28.489 14.5059H34.317C34.335 14.5059 34.353 14.5159 34.38 14.5229C34.304 14.5639 34.232 14.5439 34.163 14.5439C32.305 14.5439 30.448 14.5439 28.591 14.5459C28.52 14.5459 28.446 14.5229 28.381 14.5709V14.5729H28.38ZM90.888 14.5399H85.038V14.5199H90.896L90.888 14.5399ZM95.056 14.5119H100.867V14.5319H95.047L95.056 14.5119ZM78.371 14.5169H84.152V14.5369H78.365L78.371 14.5169ZM20.762 14.5349H15.021V14.5209H20.762V14.5349ZM13.7 24.2349C13.785 23.8939 13.975 23.7269 14.281 23.7269H14.534C14.48 23.8029 14.403 23.8119 14.322 23.8159C13.926 23.8319 13.747 24.0399 13.747 24.4889V28.4889C13.693 28.3709 13.711 28.2919 13.711 28.2159V24.5159C13.711 24.4219 13.706 24.3279 13.703 24.2349H13.7ZM22.66 14.5729H22.621C22.646 14.4849 22.713 14.5059 22.767 14.5059H27.412C27.43 14.5059 27.449 14.5159 27.475 14.5229C27.399 14.5639 27.327 14.5439 27.258 14.5439C25.795 14.5439 24.332 14.5439 22.868 14.5459C22.797 14.5459 22.723 14.5229 22.658 14.5709L22.66 14.5729ZM77.56 14.6809V19.4309H77.543V14.6809H77.56ZM66.134 19.4269V14.6939H66.152V19.4369L66.134 19.4269ZM119.659 18.4749C120.422 18.4789 121.183 18.4849 121.945 18.4879C121.88 18.5779 121.788 18.5749 121.694 18.5749H119.945C119.84 18.5749 119.736 18.5729 119.659 18.4749ZM47.54 19.5299V24.1499H47.526V19.5299H47.54ZM75.122 17.1039C75.137 17.1039 75.152 17.1039 75.166 17.1019C75.217 17.5979 75.27 18.0919 75.319 18.5889C75.35 18.9009 75.375 19.2129 75.403 19.5269C75.255 19.4319 75.301 19.2549 75.288 19.1209C75.234 18.5639 75.194 18.0039 75.125 17.4459C75.111 17.3349 75.123 17.2169 75.122 17.1039Z" fill="black"/>
<path d="M38.517 23.6458C37.793 23.6458 37.07 23.6438 36.349 23.6428C36.408 23.5578 36.493 23.5538 36.579 23.5538H38.289C38.376 23.5538 38.459 23.5578 38.517 23.6458ZM91.374 28.5248C92.111 28.5248 92.846 28.5248 93.582 28.5228C93.505 28.6178 93.4 28.6198 93.296 28.6198H91.664C91.558 28.6198 91.455 28.6178 91.376 28.5248H91.374ZM11.222 19.1698L13.428 19.1858C13.346 19.2548 13.252 19.2668 13.152 19.2668H11.528C11.419 19.2668 11.308 19.2618 11.222 19.1718V19.1698ZM112.28 24.1658L110.15 24.1588C110.218 24.0698 110.31 24.0738 110.402 24.0738H112.032C112.124 24.0738 112.218 24.0688 112.28 24.1658ZM66.208 19.5278H68.299C68.233 19.6178 68.141 19.6138 68.049 19.6138H66.459C66.368 19.6138 66.275 19.6178 66.209 19.5268L66.208 19.5278ZM75.4 19.5238C76.096 19.5238 76.793 19.5268 77.489 19.5288C77.423 19.6188 77.331 19.6158 77.237 19.6158H75.646C75.554 19.6158 75.46 19.6208 75.398 19.5238H75.4ZM110.073 18.7438C110.743 18.7438 111.414 18.7478 112.085 18.7488C111.999 18.8268 111.896 18.8338 111.791 18.8338H110.364C110.259 18.8338 110.155 18.8308 110.073 18.7438ZM112.117 18.7048C112.105 17.3468 112.099 15.9918 112.12 14.6348C112.191 14.6948 112.163 14.7808 112.163 14.8568C112.163 16.0658 112.165 17.2768 112.163 18.4868C112.163 18.5598 112.193 18.6468 112.117 18.7048ZM20.844 16.6698V14.5928C20.927 14.6648 20.924 14.7658 20.924 14.8668V16.3958C20.924 16.4968 20.927 16.5978 20.844 16.6698ZM84.945 14.5928V16.6698C84.862 16.5978 84.865 16.4968 84.865 16.3958V14.8668C84.865 14.7668 84.862 14.6648 84.945 14.5928ZM78.28 14.5928V16.6698C78.206 16.5778 78.2 16.4638 78.2 16.3488V14.9118C78.2 14.7968 78.207 14.6848 78.28 14.5908V14.5928ZM108.101 23.7218H109.953C109.895 23.8098 109.812 23.8138 109.724 23.8138H108.329C108.242 23.8138 108.157 23.8138 108.101 23.7218ZM95.286 26.4998V28.5338C95.206 28.4438 95.201 28.3298 95.201 28.2138V26.7718C95.201 26.6718 95.196 26.5678 95.286 26.5018V26.4998ZM84.95 26.4998V28.5338C84.87 28.4438 84.866 28.3298 84.866 28.2138V26.7718C84.866 26.6718 84.861 26.5678 84.95 26.5018V26.4998ZM68.896 26.4998V28.5338C68.816 28.4438 68.812 28.3298 68.812 28.2138V26.7698C68.812 26.6698 68.807 26.5658 68.896 26.4998ZM9.25298 21.6498L9.24498 23.6838C9.16498 23.6098 9.16898 23.5088 9.16898 23.4078V21.9688C9.16898 21.8538 9.17398 21.7398 9.25298 21.6518V21.6498ZM121.998 18.3978V14.6918H122.011V18.3958H121.998V18.3978ZM78.283 26.4998L78.275 28.4898C78.2191 28.3984 78.1932 28.2917 78.201 28.1848V26.7998C78.201 26.6918 78.209 26.5848 78.283 26.4998ZM74.811 28.4878L74.803 26.4978C74.877 26.5828 74.885 26.6888 74.885 26.7978V28.1828C74.893 28.2897 74.8671 28.3965 74.811 28.4878ZM45.306 28.4878L45.297 26.4978C45.372 26.5828 45.38 26.6888 45.38 26.7978V28.1828C45.3877 28.2898 45.3624 28.3966 45.306 28.4878ZM11.895 28.5168L13.665 28.5318C13.585 28.6068 13.491 28.6178 13.392 28.6178H12.156C12.059 28.6178 11.96 28.6158 11.895 28.5178V28.5168ZM43.92 20.5238C43.86 20.4678 43.882 20.3898 43.882 20.3218V17.2188C43.882 17.1498 43.86 17.0728 43.92 17.0168V20.5238ZM106.364 20.2198C106.304 20.1648 106.325 20.0868 106.325 20.0188V17.1738C106.325 17.1048 106.302 17.0278 106.365 16.9738L106.364 20.2198ZM115.306 24.1908H113.151V24.1708H115.31C115.31 24.1708 115.31 24.1858 115.308 24.1908H115.306ZM47.604 18.9298H49.469V18.9498H47.595L47.604 18.9298ZM101.674 14.6348C101.692 15.2998 101.692 15.9648 101.674 16.6308C101.621 16.5908 101.629 16.5308 101.629 16.4738V14.7898C101.629 14.7338 101.621 14.6718 101.674 14.6328V14.6348ZM47.434 19.4028C46.829 19.4068 46.224 19.4078 45.621 19.4118C45.651 19.3448 45.707 19.3538 45.757 19.3538H47.313C47.358 19.3538 47.406 19.3538 47.436 19.4028H47.434ZM14.893 14.6348C14.9111 15.3 14.9111 15.9656 14.893 16.6308C14.84 16.5908 14.848 16.5308 14.848 16.4738V14.7898C14.848 14.7338 14.84 14.6718 14.893 14.6328V14.6348ZM22.53 14.6828V16.5758H22.513V14.6828H22.53ZM27.587 16.6288C27.5689 15.9636 27.5689 15.298 27.587 14.6328C27.64 14.6728 27.631 14.7318 27.631 14.7898V16.4738C27.631 16.5298 27.64 16.5908 27.587 16.6308V16.6288ZM28.254 14.6938V16.5688H28.236V14.6848C28.236 14.6848 28.249 14.6898 28.254 14.6938ZM34.488 16.6288C34.4699 15.9636 34.4699 15.298 34.488 14.6328C34.541 14.6728 34.533 14.7318 34.533 14.7898V16.4738C34.533 16.5298 34.541 16.5908 34.488 16.6308V16.6288ZM39.23 14.6348C39.2481 15.3 39.2481 15.9656 39.23 16.6308C39.177 16.5908 39.186 16.5308 39.186 16.4738V14.7898C39.186 14.7338 39.177 14.6718 39.23 14.6328V14.6348ZM84.27 16.6288C84.2519 15.9636 84.2519 15.298 84.27 14.6328C84.323 14.6728 84.315 14.7318 84.315 14.7898V16.4738C84.315 16.5298 84.323 16.5908 84.27 16.6308V16.6288ZM101.03 14.6918V16.5818H101.012V14.6868L101.03 14.6918ZM107.947 20.3268C107.938 20.2748 107.952 20.2148 107.902 20.1768L108.014 19.2208C108.026 19.2208 108.037 19.2228 108.049 19.2238L108.068 19.3248C108.045 19.6608 108.011 19.9948 107.947 20.3248V20.3268ZM45.62 24.2778C46.224 24.2808 46.83 24.2828 47.432 24.2868C47.396 24.3448 47.342 24.3358 47.289 24.3358H45.774C45.718 24.3358 45.652 24.3538 45.618 24.2778H45.62ZM14.603 21.7378V23.6278H14.588V21.7378H14.603ZM101.674 26.5408C101.696 27.1908 101.689 27.8408 101.677 28.4878C101.62 28.4518 101.63 28.3908 101.63 28.3348V26.6958C101.63 26.6398 101.621 26.5788 101.674 26.5388V26.5408ZM101.012 28.4328V26.5918H101.03V28.4398L101.012 28.4328ZM89.831 26.5998V28.4328H89.813V26.5928C89.813 26.5928 89.826 26.5988 89.831 26.6028V26.6008V26.5998ZM84.267 28.4888C84.256 27.8388 84.249 27.1888 84.27 26.5408C84.323 26.5808 84.315 26.6408 84.315 26.6978V28.3368C84.315 28.3928 84.325 28.4538 84.267 28.4898V28.4888ZM39.23 26.5408C39.252 27.1908 39.245 27.8408 39.234 28.4878C39.176 28.4518 39.186 28.3908 39.186 28.3348V26.6958C39.186 26.6398 39.178 26.5788 39.23 26.5388V26.5408ZM28.226 28.4328V26.5998H28.244V28.4388L28.226 28.4288V28.4328ZM109.915 19.1428C109.322 19.1648 108.73 19.1628 108.137 19.1428C108.173 19.0848 108.227 19.0938 108.28 19.0938H109.772C109.823 19.0938 109.879 19.0838 109.915 19.1428ZM107.862 20.2618C107.841 20.2758 107.819 20.3038 107.798 20.3038H106.47C106.449 20.3038 106.425 20.2778 106.404 20.2658C106.891 20.2658 107.377 20.2638 107.864 20.2618H107.862ZM45.341 20.6118C45.297 20.6718 45.234 20.6538 45.177 20.6538H44.123C44.068 20.6538 44.005 20.6718 43.959 20.6098H45.339L45.341 20.6118ZM109.874 18.0128C109.91 17.9898 109.912 17.9478 109.919 17.9088C109.979 18.1378 110.017 18.3718 110.035 18.6088C110.014 18.7088 109.981 18.6668 109.971 18.6088C109.935 18.4098 109.905 18.2118 109.874 18.0108V18.0128ZM73.702 16.8428C73.746 16.7828 73.808 16.7998 73.865 16.7998H74.88C74.936 16.7998 75 16.7818 75.041 16.8448C74.594 16.8448 74.147 16.8448 73.701 16.8428H73.702ZM68.732 16.8438C68.958 16.7478 69.192 16.8108 69.422 16.8058C69.587 16.8018 69.758 16.7518 69.918 16.8438H68.732ZM60.33 27.3638L60.276 27.3138C60.366 27.1688 60.486 27.0968 60.646 27.1088L60.687 27.1488C60.582 27.2488 60.448 27.2888 60.33 27.3638ZM69.522 26.4128C69.329 26.5068 69.125 26.4308 68.928 26.4548C69.121 26.3608 69.324 26.4348 69.522 26.4128ZM68.417 19.0528C68.432 18.9228 68.377 18.7828 68.457 18.6628C68.44 18.7928 68.495 18.9318 68.417 19.0528ZM68.496 18.1428C68.511 18.0128 68.458 17.8738 68.536 17.7508C68.519 17.8808 68.576 18.0208 68.496 18.1428ZM68.456 18.5758C68.471 18.4608 68.418 18.3358 68.494 18.2278C68.479 18.3428 68.532 18.4678 68.456 18.5758ZM68.536 17.6228C68.55 17.5078 68.496 17.3828 68.574 17.2748C68.557 17.3908 68.612 17.5148 68.536 17.6228ZM68.378 19.3998C68.389 19.3128 68.346 19.2148 68.416 19.1378C68.404 19.2248 68.447 19.3218 68.378 19.3998ZM45.498 19.7868C45.486 19.8738 45.528 19.9708 45.46 20.0468C45.471 19.9598 45.428 19.8628 45.498 19.7868ZM75.081 16.8888C75.152 16.9488 75.112 17.0308 75.122 17.1048C75.058 17.0448 75.091 16.9608 75.081 16.8888ZM45.459 20.1768C45.45 20.2508 45.485 20.3328 45.421 20.3958C45.429 20.3218 45.394 20.2408 45.459 20.1768ZM88.694 17.7958C88.598 17.7328 88.624 17.8608 88.58 17.8808V17.4348C88.6528 17.5413 88.6925 17.6669 88.694 17.7958ZM96.418 17.7968L96.308 17.7528C96.3105 17.6349 96.3489 17.5205 96.418 17.4248V17.7968ZM92.879 22.3858C92.929 22.4298 92.981 22.4238 93.032 22.3858C93.046 22.4838 93 22.5628 92.971 22.6698C92.895 22.5758 92.889 22.4798 92.879 22.3858ZM85.38 26.4918C85.46 26.4358 85.536 26.4378 85.615 26.4918H85.38ZM26.492 17.2338C26.548 17.3018 26.523 17.3848 26.523 17.4608V23.6298C26.523 23.7058 26.549 23.7898 26.487 23.8558V17.7948C26.487 17.6068 26.49 17.4198 26.493 17.2318L26.492 17.2338ZM118.119 28.7028C118.088 28.7528 118.042 28.7498 117.996 28.7498H116.937C116.891 28.7498 116.845 28.7498 116.814 28.7008H118.117L118.119 28.7028ZM43.846 20.6968H45.457C45.447 20.7468 45.411 20.7368 45.38 20.7368H43.922C43.891 20.7368 43.854 20.7468 43.846 20.6968ZM70.079 25.9928C70.077 25.9488 70.072 25.9058 70.072 25.8628C70.072 22.8298 70.072 19.7958 70.074 16.7638C70.145 16.7858 70.107 16.8468 70.107 16.8888V25.7848C70.107 25.8548 70.129 25.9288 70.079 25.9918V25.9928Z" fill="black"/>
<path d="M60.646 27.1099L60.276 27.3129C59.554 27.6359 58.806 27.8239 58.024 27.8239C55.307 27.8239 52.991 25.6539 52.554 22.7089C52.3829 21.5683 52.5086 20.4029 52.919 19.3249C52.95 19.2399 52.973 19.1519 52.999 19.0649C53.193 18.7619 53.336 18.4249 53.542 18.1269C54.715 16.4359 56.267 15.5769 58.205 15.6289C60.795 15.6989 62.993 17.7659 63.481 20.5509C63.936 23.1459 62.835 25.7509 60.731 27.0539C60.7025 27.0723 60.6745 27.0913 60.647 27.1109L60.646 27.1099Z" fill="white"/>
<path d="M57.472 18.556L57.787 19.046C58.477 18.26 59.168 17.477 59.842 16.71C59.842 17.039 59.852 17.376 59.84 17.714C59.807 18.612 59.763 19.511 59.724 20.408C59.702 20.883 59.676 21.356 59.661 21.83C59.651 22.143 59.778 22.274 60.062 22.25C60.807 22.182 61.552 22.107 62.296 22.04C62.376 22.033 62.408 21.995 62.436 21.92C62.502 21.75 62.581 21.585 62.651 21.417C62.664 21.387 62.663 21.337 62.707 21.352C62.763 21.37 62.743 21.422 62.728 21.457C62.6958 21.5418 62.659 21.625 62.618 21.706C62.368 22.2 62.312 22.764 62.148 23.289C62.114 23.399 62.071 23.457 61.971 23.496C61.722 23.594 61.575 23.821 61.438 24.05C61.33 24.233 61.122 24.446 61.188 24.617C61.238 24.745 61.538 24.667 61.726 24.68C61.934 24.697 62.142 24.715 62.356 24.73C62.314 24.792 62.263 24.763 62.222 24.763H55.262C55.151 24.763 55.118 24.734 55.122 24.612C55.13 24.322 55.118 24.034 55.126 23.745C55.13 23.626 55.1 23.59 54.988 23.583C54.701 23.567 54.413 23.534 54.125 23.503C54.063 23.496 53.979 23.518 53.95 23.446C53.922 23.374 54.004 23.341 54.041 23.298C55.072 22.126 56.104 20.957 57.138 19.788C57.2246 19.6955 57.2805 19.5785 57.298 19.453C57.34 19.165 57.406 18.878 57.472 18.553V18.556Z" fill="#252525"/>
<path d="M55.04 24.762H53.494C54.012 24.74 54.528 24.558 55.046 24.689C55.046 24.713 55.041 24.736 55.04 24.762ZM57.964 22.61C57.704 22.7 57.574 22.606 57.574 22.328V19.583C57.574 19.547 57.571 19.511 57.574 19.475C57.586 19.352 57.676 19.28 57.754 19.239C57.832 19.197 57.852 19.323 57.888 19.383C58.418 20.21 58.944 21.036 59.473 21.863C59.543 21.973 59.578 22.078 59.565 22.218C59.533 22.568 59.519 22.921 59.507 23.271C59.504 23.374 59.473 23.386 59.392 23.379C58.962 23.343 58.531 23.309 58.098 23.283C57.993 23.276 57.951 23.247 57.961 23.123C57.972 22.958 57.964 22.793 57.964 22.612V22.61ZM59.79 16.918L59.574 21.854L59.254 21.354C58.806 20.648 58.361 19.942 57.909 19.239C57.863 19.166 57.835 19.125 57.907 19.045C58.509 18.371 59.104 17.69 59.7 17.01L59.79 16.918ZM54.081 23.395L57.188 19.87L57.218 19.892C57.105 20.486 56.995 21.08 56.884 21.672C56.824 21.985 56.757 22.3 56.706 22.615C56.688 22.731 56.656 22.783 56.545 22.772C56.461 22.763 56.375 22.776 56.29 22.765C56.032 22.731 56.017 22.729 56.037 23.023C56.052 23.243 55.994 23.305 55.789 23.308C55.239 23.318 54.689 23.363 54.083 23.397L54.081 23.395ZM57.447 19.58V22.646C57.447 22.738 57.407 22.751 57.339 22.754C57.166 22.764 57.003 22.664 56.821 22.724C56.745 22.749 56.777 22.639 56.785 22.594C56.941 21.754 57.095 20.915 57.263 20.078C57.294 19.921 57.27 19.731 57.444 19.58H57.447ZM62.285 22.392C62.26 22.517 62.241 22.627 62.215 22.735C62.191 22.85 62.101 22.835 62.025 22.841C61.465 22.887 60.906 22.957 60.347 23.065C60.307 22.932 60.378 22.809 60.368 22.681C60.36 22.571 60.443 22.605 60.493 22.6C61.08 22.53 61.665 22.464 62.283 22.394L62.285 22.392ZM59.461 23.466C59.448 23.709 59.354 23.789 59.147 23.776C58.794 23.754 58.437 23.769 58.082 23.771C57.829 23.771 58.003 23.571 57.969 23.469C57.929 23.354 58.013 23.363 58.097 23.369C58.547 23.404 58.999 23.433 59.461 23.464V23.466ZM59.583 23.303C59.643 22.926 59.601 22.565 59.653 22.157C59.855 22.467 60.036 22.745 60.213 23.027C60.258 23.096 60.197 23.112 60.151 23.119C59.964 23.149 59.789 23.222 59.583 23.303Z" fill="white"/>
<path d="M56.658 22.8678L56.636 22.9528C56.57 23.2688 56.49 23.3278 56.189 23.2958C56.135 23.2898 56.105 23.2808 56.107 23.2128C56.11 23.0848 56.107 22.9578 56.107 22.8158C56.297 22.8838 56.474 22.8498 56.656 22.8678H56.658ZM57.182 23.2668C57.115 23.2398 56.934 23.3738 56.982 23.1388C57.003 23.0308 56.885 22.8098 57.089 22.8358C57.2 22.8478 57.45 22.6748 57.454 23.0338C57.457 23.2758 57.373 23.3208 57.181 23.2688L57.182 23.2668ZM57.88 22.7428C57.88 22.8808 57.875 23.0158 57.881 23.1508C57.886 23.2408 57.845 23.2778 57.781 23.2508C57.712 23.2238 57.607 23.3498 57.572 23.1968C57.522 22.9568 57.572 22.8208 57.727 22.7798L57.88 22.7428ZM56.899 23.0148C56.899 23.0868 56.902 23.1368 56.899 23.1878C56.889 23.3178 56.797 23.2728 56.733 23.2708C56.644 23.2688 56.673 23.2078 56.693 23.1498C56.706 23.1098 56.693 23.0578 56.71 23.0238C56.748 22.9498 56.7 22.7868 56.85 22.8218C56.973 22.8478 56.848 22.9728 56.899 23.0148ZM56.897 23.5448C56.863 23.6258 56.938 23.7708 56.828 23.7648C56.702 23.7598 56.762 23.6078 56.756 23.5198C56.751 23.4598 56.715 23.3538 56.822 23.3558C56.969 23.3608 56.85 23.4918 56.897 23.5448ZM61.228 23.2978C61.258 23.4258 61.195 23.4478 61.138 23.4418C61.014 23.4288 61.062 23.3048 61.04 23.2288C61.019 23.1528 61.054 23.1118 61.132 23.1208C61.264 23.1368 61.208 23.2578 61.226 23.2978H61.228ZM60.882 23.3558C60.912 23.4558 60.896 23.5138 60.803 23.5128C60.653 23.5108 60.746 23.3728 60.713 23.3048C60.663 23.1978 60.754 23.1788 60.81 23.1788C60.95 23.1788 60.843 23.3138 60.88 23.3558H60.882ZM60.054 23.4558C60.034 23.3638 60.069 23.3048 60.15 23.3158C60.28 23.3318 60.22 23.4688 60.248 23.5458C60.275 23.6168 60.222 23.6438 60.158 23.6418C60.031 23.6388 60.069 23.5288 60.054 23.4558ZM61.8 23.1838C61.75 23.0518 61.795 22.9928 61.88 22.9998C62.01 23.0098 61.932 23.1458 61.963 23.2178C62.001 23.3068 61.933 23.3298 61.873 23.3338C61.724 23.3458 61.825 23.2058 61.798 23.1818L61.8 23.1838ZM59.893 23.5558C59.933 23.6598 59.903 23.7138 59.82 23.7178C59.67 23.7228 59.758 23.5858 59.73 23.5178C59.692 23.4258 59.747 23.3838 59.822 23.3838C59.968 23.3838 59.855 23.5198 59.892 23.5558H59.893ZM60.578 23.4768C60.597 23.5378 60.548 23.5808 60.471 23.5668C60.351 23.5428 60.409 23.4118 60.381 23.3318C60.351 23.2438 60.427 23.2518 60.477 23.2518C60.61 23.2518 60.555 23.3678 60.578 23.4768ZM61.59 23.2348C61.597 23.3268 61.607 23.3858 61.512 23.3848C61.372 23.3808 61.425 23.2548 61.4 23.1818C61.372 23.0988 61.423 23.0698 61.492 23.0698C61.622 23.0698 61.551 23.2018 61.59 23.2348ZM57.885 23.5738V23.7238C57.881 23.7698 57.845 23.7838 57.815 23.7698C57.705 23.7158 57.781 23.6118 57.771 23.5318C57.763 23.4708 57.735 23.3818 57.819 23.3478C57.853 23.3338 57.879 23.3658 57.881 23.4058C57.885 23.4618 57.881 23.5198 57.881 23.5758H57.885V23.5738ZM57.134 23.5648C57.134 23.5358 57.13 23.5068 57.134 23.4778C57.14 23.4348 57.111 23.3648 57.184 23.3628C57.267 23.3608 57.249 23.4348 57.252 23.4888C57.255 23.5468 57.252 23.6048 57.255 23.6618C57.259 23.7218 57.267 23.7778 57.183 23.7738C57.083 23.7708 57.14 23.6968 57.132 23.6518C57.127 23.6248 57.132 23.5938 57.132 23.5648H57.134ZM57.687 23.5538C57.687 23.6208 57.689 23.6708 57.687 23.7198C57.685 23.7688 57.652 23.7698 57.617 23.7698C57.587 23.7698 57.57 23.7498 57.57 23.7178C57.57 23.6678 57.564 23.6178 57.57 23.5678C57.583 23.4948 57.516 23.3588 57.636 23.3628C57.744 23.3658 57.656 23.5018 57.686 23.5528L57.687 23.5538ZM57.324 23.5498C57.364 23.4928 57.274 23.3628 57.394 23.3678C57.502 23.3738 57.451 23.4978 57.444 23.5628C57.437 23.6318 57.52 23.7708 57.384 23.7628C57.268 23.7558 57.372 23.6188 57.324 23.5528V23.5498ZM56.643 23.3368C56.719 23.4738 56.671 23.5928 56.696 23.7038C56.716 23.7868 56.656 23.7718 56.612 23.7758C56.548 23.7808 56.532 23.7458 56.548 23.6838L56.643 23.3368ZM60.258 22.9018C60.188 22.8248 60.095 22.7598 60.107 22.6528C60.112 22.6058 60.232 22.5848 60.26 22.6148C60.342 22.6998 60.258 22.8028 60.26 22.9018H60.258ZM57.063 23.5558C57.029 23.6298 57.108 23.7488 57.007 23.7618C56.922 23.7718 56.963 23.6618 56.961 23.6078C56.961 23.5278 56.925 23.3978 57.016 23.3878C57.105 23.3808 57.016 23.5078 57.063 23.5538V23.5558Z" fill="white"/>
<path d="M57.577 19.2528V18.9368C57.701 19.0428 57.701 19.1478 57.577 19.2528ZM57.42 19.2508C57.446 19.3308 57.49 19.4108 57.389 19.4858C57.402 19.3918 57.413 19.3218 57.42 19.2508Z" fill="black"/>
<path d="M60.756 24.6568C60.876 24.6348 60.939 24.6278 61.019 24.6608C60.936 24.6898 60.871 24.6878 60.756 24.6568Z" fill="#252525"/>
</g>
</g>
<defs>
<clipPath id="clip0_1_524">
<rect width="126" height="42" fill="white" transform="translate(0 0.379883)"/>
</clipPath>
<clipPath id="clip1_1_524">
<rect width="126" height="42" fill="white" transform="translate(0 0.379883)"/>
</clipPath>
</defs>
</svg>
