<svg width="25" height="25" viewBox="0 0 25 25" fill="none" xmlns="http://www.w3.org/2000/svg">
<g clip-path="url(#clip0_1_704)">
<g clip-path="url(#clip1_1_704)">
<path d="M12.36 9.54982C11.8062 9.54982 11.2649 9.71404 10.8044 10.0217C10.3439 10.3294 9.98506 10.7667 9.77314 11.2783C9.56121 11.7899 9.50576 12.3529 9.6138 12.8961C9.72184 13.4392 9.98851 13.9381 10.3801 14.3297C10.7717 14.7213 11.2706 14.988 11.8137 15.096C12.3569 15.2041 12.9199 15.1486 13.4315 14.9367C13.9431 14.7248 14.3804 14.3659 14.6881 13.9054C14.9958 13.445 15.16 12.9036 15.16 12.3498C15.1613 11.9818 15.0898 11.6171 14.9496 11.2767C14.8093 10.9364 14.6031 10.6272 14.3428 10.367C14.0826 10.1067 13.7734 9.90051 13.4331 9.76027C13.0928 9.62002 12.7281 9.5485 12.36 9.54982Z" fill="white"/>
<path fill-rule="evenodd" clip-rule="evenodd" d="M16.21 2.5H8.52002C6.92872 2.5 5.4026 3.13214 4.27738 4.25736C3.15216 5.38258 2.52002 6.9087 2.52002 8.5V16.19C2.52002 17.7813 3.15216 19.3074 4.27738 20.4326C5.4026 21.5579 6.92872 22.19 8.52002 22.19H16.21C17.8013 22.19 19.3274 21.5579 20.4527 20.4326C21.5779 19.3074 22.21 17.7813 22.21 16.19V8.5C22.21 6.9087 21.5779 5.38258 20.4527 4.25736C19.3274 3.13214 17.8013 2.5 16.21 2.5ZM12.36 16.64C11.2196 16.6373 10.1269 16.1818 9.32239 15.3735C8.51786 14.5652 8.06737 13.4704 8.07002 12.33C8.07267 11.1896 8.52825 10.0969 9.33653 9.29237C10.1448 8.48784 11.2396 8.03735 12.38 8.04C12.9447 8.04131 13.5036 8.15384 14.0248 8.37114C14.546 8.58845 15.0193 8.90629 15.4177 9.30651C15.816 9.70673 16.1316 10.1815 16.3465 10.7037C16.5614 11.2259 16.6713 11.7853 16.67 12.35C16.6687 12.9147 16.5562 13.4736 16.3389 13.9948C16.1216 14.516 15.8037 14.9893 15.4035 15.3876C15.0033 15.786 14.5285 16.1016 14.0063 16.3165C13.4841 16.5314 12.9247 16.6413 12.36 16.64ZM16.095 7.412C16.1788 7.61152 16.32 7.78159 16.5008 7.90055C16.6816 8.01951 16.8936 8.08198 17.11 8.08C17.2518 8.08 17.3923 8.05206 17.5233 7.99779C17.6543 7.94351 17.7734 7.86396 17.8737 7.76368C17.974 7.66339 18.0535 7.54433 18.1078 7.4133C18.1621 7.28227 18.19 7.14183 18.19 7C18.1915 6.8382 18.1569 6.6781 18.0888 6.53133C18.0207 6.38455 17.9208 6.25478 17.7963 6.15143C17.6718 6.04808 17.5258 5.97375 17.369 5.93382C17.2122 5.8939 17.0485 5.88938 16.8897 5.9206C16.731 5.95183 16.5811 6.018 16.4511 6.11433C16.3211 6.21066 16.2142 6.33473 16.1381 6.47753C16.062 6.62032 16.0187 6.77827 16.0112 6.93991C16.0038 7.10154 16.0324 7.26281 16.095 7.412Z" fill="white"/>
</g>
</g>
<defs>
<clipPath id="clip0_1_704">
<rect width="24" height="24" fill="white" transform="translate(0.52002 0.5)"/>
</clipPath>
<clipPath id="clip1_1_704">
<rect width="24" height="24" fill="white" transform="translate(0.52002 0.5)"/>
</clipPath>
</defs>
</svg>
