<svg width="25" height="25" viewBox="0 0 25 25" fill="none" xmlns="http://www.w3.org/2000/svg">
<g clip-path="url(#clip0_1_694)">
<g clip-path="url(#clip1_1_694)">
<path fill-rule="evenodd" clip-rule="evenodd" d="M18.494 17.4771C18.496 17.6751 18.432 17.7321 18.24 17.7271C17.6928 17.7119 17.1452 17.7129 16.598 17.7301C16.323 17.7421 16.241 17.6701 16.245 17.3851C16.261 16.1541 16.25 14.9221 16.253 13.6911C16.253 13.3541 16.23 13.0191 16.106 12.7011C15.896 12.1641 15.534 11.8011 14.934 11.7481C14.294 11.6921 13.83 11.9831 13.517 12.5221C13.311 12.8751 13.264 13.2701 13.265 13.6731C13.268 14.9171 13.258 16.1611 13.272 17.4041C13.276 17.6721 13.194 17.7391 12.938 17.7301C12.3908 17.7137 11.8432 17.713 11.296 17.7281C11.086 17.7331 11.022 17.6701 11.022 17.4581C11.029 14.8961 11.028 12.3341 11.024 9.77207C11.024 9.58807 11.061 9.50507 11.268 9.51007C11.853 9.52207 12.438 9.52207 13.022 9.51007C13.224 9.50607 13.277 9.58007 13.269 9.76907C13.256 10.0751 13.266 10.3831 13.266 10.7691C14.133 9.69907 15.176 9.34707 16.415 9.59707C17.615 9.83907 18.441 10.9191 18.475 12.3661C18.515 14.0681 18.484 15.7731 18.494 17.4771ZM8.41101 8.55707C8.2395 8.55789 8.06954 8.52445 7.91113 8.45871C7.75271 8.39297 7.60902 8.29625 7.48849 8.17423C7.36796 8.0522 7.27301 7.90734 7.20922 7.74812C7.14543 7.58891 7.11408 7.41856 7.11701 7.24707C7.11674 6.90102 7.2534 6.56891 7.49716 6.32328C7.74092 6.07765 8.07196 5.93845 8.41801 5.93607C8.76405 5.94003 9.09441 6.08096 9.33676 6.32799C9.5791 6.57502 9.71368 6.90802 9.71101 7.25407C9.71329 7.42556 9.68124 7.59577 9.61675 7.75469C9.55227 7.91361 9.45664 8.05803 9.33551 8.17944C9.21438 8.30085 9.07018 8.39681 8.91141 8.46166C8.75264 8.52651 8.5825 8.55895 8.41101 8.55707ZM9.21501 17.7301C8.66816 17.7129 8.12092 17.7119 7.57401 17.7271C7.37801 17.7311 7.29001 17.6951 7.29001 17.4671C7.29801 14.9071 7.29701 12.3471 7.29101 9.78707C7.29101 9.58107 7.34001 9.50407 7.55901 9.51007C8.11801 9.52407 8.67801 9.52807 9.23601 9.50807C9.49301 9.49907 9.54001 9.59407 9.53901 9.82707C9.52901 11.0951 9.53401 12.3621 9.53401 13.6301C9.53401 14.8851 9.52701 16.1401 9.54001 17.3961C9.54301 17.6511 9.48401 17.7411 9.21501 17.7301ZM21.438 6.53807C21.388 6.13007 21.38 5.71107 21.156 5.34707C20.427 4.16507 19.422 3.49207 17.982 3.50007C14.337 3.51907 10.692 3.50007 7.04701 3.51307C6.49901 3.51407 5.93601 3.53307 5.43901 3.82607C4.22501 4.54507 3.51301 5.55007 3.52001 7.02107C3.53701 10.6781 3.52001 14.3351 3.53201 17.9931C3.53401 18.5081 3.54201 19.0481 3.81201 19.5121C4.44901 20.6101 5.28901 21.4251 6.66901 21.4201C6.70901 21.4201 6.73901 21.4381 6.77301 21.4561H18.267C18.33 21.3991 18.408 21.4271 18.48 21.4181C18.893 21.3661 19.32 21.3641 19.687 21.1281C20.712 20.4641 21.466 19.6301 21.443 18.3101C21.443 18.2871 21.459 18.2661 21.477 18.2471V6.75307C21.425 6.68807 21.447 6.61007 21.438 6.53807Z" fill="white"/>
</g>
</g>
<defs>
<clipPath id="clip0_1_694">
<rect width="24" height="24" fill="white" transform="translate(0.52002 0.5)"/>
</clipPath>
<clipPath id="clip1_1_694">
<rect width="24" height="24" fill="white" transform="translate(0.52002 0.5)"/>
</clipPath>
</defs>
</svg>
