<svg width="198" height="44" viewBox="0 0 198 44" fill="none" xmlns="http://www.w3.org/2000/svg">
<g clip-path="url(#clip0_1_1283)">
<g clip-path="url(#clip1_1_1283)">
<path d="M38.6696 8.84304V-1.61523L23.2613 12.5648L7.85302 -1.61523V8.84304L0.632721 2.32988V46.1727H13.0263V20.5295L23.2613 29.7968L33.4963 20.5295V46.1727H45.8526V2.32988L38.6696 8.84304ZM5.84325 40.9994V13.9791L7.85302 15.8028V40.9622H5.84325V40.9994ZM33.4963 13.5325L23.2613 22.7998L13.0263 13.5325V10.1829L23.2613 19.5991L33.4963 10.1829V13.5325ZM40.6793 40.9994H38.6696V15.84L40.6793 14.0163V40.9994Z" fill="#EA223C"/>
<path d="M58.879 21.1996V34.5981H54.8222V11.4112L66.9925 23.5815L79.2 11.374V34.5981H75.1433V21.1996L66.9925 29.3503L58.879 21.1996ZM110.91 30.5413V34.5981H106.667V12.0067H110.91V24.5492L123.452 12.0067H129.444L118.13 23.321L129.444 34.6353H123.452L115.153 26.3357L110.91 30.5413Z" fill="#010101"/>
<path d="M142.657 24.1771V34.5982H138.451V24.1771L126.281 12.0068H132.273L140.573 20.3065L148.872 12.0068H154.827L142.657 24.1771Z" fill="#010101"/>
<path d="M158.921 30.3553H174.441V34.5982H154.678V12.0068H174.441V16.2497H158.921V21.1997H173.027L171.612 25.4425H158.921V30.3553ZM181.512 30.3553H197.032V34.5982H177.27V12.0068H197.032V16.2497H181.512V21.1997H195.618L194.204 25.4425H181.512V30.3553ZM101.642 34.5982H105.997L92.9707 12.0068L79.9443 34.5982H84.2988L87.3135 29.3877H98.7022L101.642 34.5982ZM89.4349 25.6286L92.9334 19.5249L96.4319 25.6286H89.4349Z" fill="#010101"/>
</g>
</g>
<defs>
<clipPath id="clip0_1_1283">
<rect width="198" height="44" fill="white"/>
</clipPath>
<clipPath id="clip1_1_1283">
<rect width="198" height="48.3462" fill="white" transform="translate(0 -2.17334)"/>
</clipPath>
</defs>
</svg>
