<svg width="97" height="25" viewBox="0 0 97 25" fill="none" xmlns="http://www.w3.org/2000/svg">
<g clip-path="url(#clip0_1_1253)">
<g clip-path="url(#clip1_1_1253)">
<g clip-path="url(#clip2_1_1253)">
<path d="M18.451 6.18705V0.978062L10.7765 8.04079L3.10206 0.978062V6.18705L-0.494179 2.94302V24.78H5.67875V12.0078L10.7765 16.6236L15.8743 12.0078V24.78H22.0287V2.94302L18.451 6.18705ZM2.10105 22.2033V8.74521L3.10206 9.65353V22.1848H2.10105V22.2033ZM15.8743 8.52276L10.7765 13.1386L5.67875 8.52276V6.8544L10.7765 11.5443L15.8743 6.8544V8.52276ZM19.452 22.2033H18.451V9.67207L19.452 8.76374V22.2033Z" fill="#EA223C"/>
<path d="M28.5168 12.3414V19.0149H26.4962V7.46613L32.5579 13.5278L38.6381 7.44759V19.0149H36.6176V12.3414L32.5579 16.4011L28.5168 12.3414ZM54.432 16.9943V19.0149H52.3187V7.76272H54.432V14.0098L60.679 7.76272H63.6635L58.0282 13.3981L63.6635 19.0334H60.679L56.5452 14.8996L54.432 16.9943Z" fill="#010101"/>
<path d="M70.2443 13.8244V19.0149H68.1496V13.8244L62.0879 7.76273H65.0724L69.2062 11.8966L73.34 7.76273H76.306L70.2443 13.8244Z" fill="#010101"/>
<path d="M78.3451 16.9016H86.0752V19.0149H76.2319V7.76273H86.0752V9.87598H78.3451V12.3414H85.3708L84.6663 14.4547H78.3451V16.9016ZM89.5973 16.9016H97.3273V19.0149H87.484V7.76273H97.3273V9.87598H89.5973V12.3414H96.6229L95.9185 14.4547H89.5973V16.9016ZM49.8161 19.0149H51.985L45.4969 7.76273L39.0089 19.0149H41.1777L42.6793 16.4197H48.3517L49.8161 19.0149ZM43.7359 14.5474L45.4784 11.5073L47.2209 14.5474H43.7359Z" fill="#010101"/>
</g>
</g>
</g>
<defs>
<clipPath id="clip0_1_1253">
<rect width="97" height="24.08" fill="white" transform="translate(0 0.700001)"/>
</clipPath>
<clipPath id="clip1_1_1253">
<rect width="97" height="24.08" fill="white" transform="translate(0 0.700001)"/>
</clipPath>
<clipPath id="clip2_1_1253">
<rect width="98.6186" height="24.08" fill="white" transform="translate(-0.809315 0.700001)"/>
</clipPath>
</defs>
</svg>
