<svg width="24" height="25" viewBox="0 0 24 25" fill="none" xmlns="http://www.w3.org/2000/svg">
<path d="M22 5.79C22 5.37579 21.6642 5.04 21.25 5.04H2.75C2.3358 5.04 2 5.37579 2 5.79C2 6.20421 2.3358 6.54 2.75 6.54H21.25C21.6642 6.54 22 6.20421 22 5.79ZM22 17.79C22 17.3758 21.6642 17.04 21.25 17.04H8.75C8.3358 17.04 8 17.3758 8 17.79C8 18.2042 8.3358 18.54 8.75 18.54H21.25C21.6642 18.54 22 18.2042 22 17.79ZM21.25 11.04C21.6642 11.04 22 11.3758 22 11.79C22 12.2042 21.6642 12.54 21.25 12.54H2.75C2.3358 12.54 2 12.2042 2 11.79C2 11.3758 2.3358 11.04 2.75 11.04H21.25Z" fill="#212121"/>
</svg>
